<svg width="45.958008" height="47.243286" viewBox="0 0 45.958 47.2433" fill="none" xmlns="http://www.w3.org/2000/svg" xmlns:xlink="http://www.w3.org/1999/xlink">
	<desc>
			Created with Pixso.
	</desc>
	<path id="Path 896" d="M3.22266 2.50684C0.363281 4.02759 -0.72168 7.57825 0.799805 10.4376L11.25 30.0851C12.7715 32.9441 16.3213 34.0291 19.1807 32.5083C22.04 30.9873 23.125 27.4366 21.6045 24.5776L11.1533 4.93005C9.63281 2.07068 6.08203 0.98584 3.22266 2.50684Z" fill-rule="evenodd" fill="#EAB875"/>
	<path id="Path 897" d="M21.6045 24.5773L11.1533 4.93005C9.63281 2.07068 6.08203 0.98584 3.22266 2.50684C3.06836 2.58899 2.91992 2.6781 2.77637 2.77136C5.11523 1.82495 8.0332 3.11963 9.47168 5.82471L19.9229 25.4718C21.3613 28.1769 20.8037 31.3203 18.7129 32.7303C18.8701 32.6633 19.0273 32.5902 19.1816 32.5079C22.04 30.9873 23.125 27.4366 21.6045 24.5773Z" fill-rule="evenodd" fill="#C68D4E"/>
	<path id="Path 898" d="M10.6787 17.7859C10.2109 16.905 8.05859 17.1335 5.87305 18.2959C5.63477 18.4225 5.4082 18.5551 5.19043 18.6913L6.86035 21.8311C7.0957 21.7269 7.33203 21.6123 7.57031 21.4862C9.75586 20.3234 11.1475 18.6667 10.6787 17.7859Z" fill-rule="evenodd" fill="#FFF7AF"/>
	<path id="Path 899" d="M14.0029 24.0355C13.5352 23.1545 11.3828 23.3832 9.19727 24.5459C8.95996 24.672 8.73242 24.8046 8.51465 24.9409L10.1846 28.0807C10.4199 27.9769 10.6562 27.8623 10.8945 27.7357C13.0801 26.573 14.4717 24.9165 14.0029 24.0355Z" fill-rule="evenodd" fill="#FFF7AF"/>
	<path id="Path 900" d="M2.54883 12.0463C2.31055 12.1729 2.08398 12.3051 1.86621 12.4417L3.53613 15.5815C3.77148 15.4773 4.00781 15.3627 4.24512 15.2362C6.43164 14.0737 7.82324 12.4171 7.35449 11.5363C6.88672 10.6553 4.73438 10.8835 2.54883 12.0463Z" fill-rule="evenodd" fill="#FFF7AF"/>
	<path id="Path 901" d="M22.7461 1.77405L22.7461 5.74109C22.7461 5.85852 22.8408 5.95374 22.959 5.95374L28.79 5.95374C28.9082 5.95374 29.0029 5.85852 29.0029 5.74109L29.0029 1.77405C29.0029 0.794434 28.209 0 27.2285 0L24.5205 0C23.54 0 22.7461 0.794434 22.7461 1.77405Z" fill-rule="evenodd" fill="#ED5176"/>
	<path id="Path 902" d="M27.2285 0L25.6709 0C26.4717 0 27.1211 0.794434 27.1211 1.77405L27.1211 5.74109C27.1211 5.85852 27.043 5.95374 26.9473 5.95374L28.79 5.95374C28.9072 5.95374 29.002 5.85852 29.002 5.74109L29.002 1.77405C29.0029 0.794434 28.208 0 27.2285 0Z" fill-rule="evenodd" fill="#BA365F"/>
	<path id="Path 903" d="M28.4863 8.46057L28.4863 5.95374L23.2617 5.95374L23.2617 8.46057C23.2617 9.08887 22.9443 9.67566 22.416 10.0166C21.5088 10.6023 20.1465 11.5643 19.7656 12.2794C18.0557 15.4941 18.915 26.8448 18.915 26.8448L32.832 26.8448C32.832 26.8448 33.6924 15.4943 31.9814 12.2794C31.6006 11.5643 30.2383 10.6023 29.3311 10.0166C28.8037 9.67566 28.4863 9.08887 28.4863 8.46057Z" fill-rule="evenodd" fill="#804C68"/>
	<path id="Path 904" d="M31.9814 12.2794C31.6016 11.5647 30.2383 10.6027 29.332 10.0166C28.8037 9.67603 28.4863 9.08887 28.4863 8.46057L28.4863 5.95374L26.6992 5.95374L26.6992 8.46057C26.6992 9.08887 26.959 9.67566 27.3906 10.0166C28.1318 10.6023 29.2451 11.5643 29.5566 12.2794C30.9541 15.4941 30.251 26.8448 30.251 26.8448L32.832 26.8448C32.832 26.8448 33.6924 15.4943 31.9814 12.2794Z" fill-rule="evenodd" fill="#60364E"/>
	<path id="Path 905" d="M36.375 16.4537L27.6621 16.4537L25.0449 19.743L25.0449 35.1771L38.9912 35.1771L38.9912 19.743L36.375 16.4537Z" fill-rule="evenodd" fill="#E9E9EA"/>
	<path id="Path 906" d="M36.374 16.4537L34.6367 16.4537L36.8525 19.743L36.8525 35.1771L38.9912 35.1771L38.9912 19.743L36.374 16.4537Z" fill-rule="evenodd" fill="#C5C4CC"/>
	<path id="Path 907" d="M28.5029 12.7654L35.5332 12.7654C35.998 12.7654 36.375 13.1417 36.375 13.6063L36.375 16.4537L27.6621 16.4537L27.6621 13.6063C27.6621 13.1417 28.0381 12.7654 28.5029 12.7654Z" fill-rule="evenodd" fill="#C8E7F7"/>
	<path id="Path 908" d="M35.5322 12.7654L33.8623 12.7654C34.29 12.7654 34.6357 13.1117 34.6357 13.5392L34.6357 16.4537L36.374 16.4537L36.374 13.6062C36.374 13.142 35.9971 12.7654 35.5322 12.7654Z" fill-rule="evenodd" fill="#8CBCD6"/>
	<path id="Path 909" d="M18.7715 19.3185C20.0332 18.3016 20.0439 18.293 23.0293 15.8882C23.1396 15.8007 23.2412 15.7007 23.333 15.588C24.0342 14.7284 23.9062 13.4631 23.0469 12.7617C22.1865 12.0607 20.9219 12.1891 20.2207 13.0482C20.1289 13.1611 20.0508 13.2811 19.9873 13.4059C18.2305 16.8135 18.2275 16.8199 17.4844 18.2606C17.3037 18.6102 17.3828 19.0568 17.6992 19.3156C18.0166 19.5745 18.4648 19.566 18.7715 19.3185Z" fill-rule="evenodd" fill="#7FAB38"/>
	<path id="Path 910" d="M16.0029 19.3185C14.7402 18.3016 14.7295 18.293 11.7441 15.8882C11.6348 15.8007 11.5322 15.7007 11.4404 15.588C10.7393 14.7284 10.8682 13.4631 11.7275 12.7617C12.5869 12.0607 13.8525 12.1891 14.5527 13.0482C14.6455 13.1611 14.7227 13.2811 14.7861 13.4059C16.543 16.8135 16.5469 16.8199 17.2891 18.2606C17.4707 18.6102 17.3916 19.0568 17.0742 19.3156C16.7568 19.5745 16.3086 19.566 16.0029 19.3185Z" fill-rule="evenodd" fill="#7FAB38"/>
	<path id="Path 911" d="M18.667 18.704C19.1826 16.2645 19.1875 16.2443 20.4072 10.4751C20.4521 10.2646 20.4766 10.0465 20.4766 9.82239C20.4766 8.11609 19.0938 6.73303 17.3867 6.73303C15.6807 6.73303 14.2979 8.11609 14.2979 9.82239C14.2979 10.0465 14.3223 10.2646 14.3672 10.4751C15.5869 16.2443 15.5889 16.2551 16.1055 18.6946C16.2295 19.2871 16.7578 19.743 17.3867 19.743C18.0166 19.743 18.543 19.2965 18.667 18.704Z" fill-rule="evenodd" fill="#AED559"/>
	<path id="Path 912" d="M22.5557 23.7721C22.6338 23.4113 22.6758 23.037 22.6758 22.6528C22.6758 19.7318 20.3076 17.3638 17.3867 17.3638C14.4658 17.3638 12.0977 19.7318 12.0977 22.6528C12.0977 23.037 12.1396 23.4113 12.2178 23.7721C14.3926 33.9508 14.3984 33.975 15.2793 38.098C15.4756 39.0824 16.3447 39.8246 17.3867 39.8246C18.4287 39.8246 19.2979 39.0824 19.4941 38.098C20.375 33.975 20.3809 33.9508 22.5557 23.7721Z" fill-rule="evenodd" fill="#FFCD34"/>
	<path id="Path 913" d="M17.3867 17.3639C17.1729 17.3639 16.9629 17.3783 16.7549 17.4028C18.8184 17.7153 20.418 19.9457 20.418 22.653C20.418 23.0371 20.3848 23.4114 20.3242 23.7721C18.6133 33.9509 18.6094 33.975 17.916 38.0978C17.7939 38.8745 17.3428 39.4984 16.7549 39.7284C16.9551 39.7897 17.167 39.8246 17.3867 39.8246C18.4287 39.8246 19.2979 39.0825 19.4941 38.0978C20.375 33.9751 20.3809 33.9509 22.5566 23.7721C22.6338 23.4114 22.6758 23.0372 22.6758 22.653C22.6758 19.7319 20.3076 17.3639 17.3867 17.3639Z" fill-rule="evenodd" fill="#E69012"/>
	<path id="Path 914" d="M4.7334 28.1066L5.12695 31.4738L5.42188 33.9885L6.71387 45.0374C6.86133 46.2949 7.92676 47.2433 9.19238 47.2433L36.7646 47.2433C38.0312 47.2433 39.0967 46.295 39.2432 45.0374L41.2236 28.1066L4.7334 28.1066Z" fill-rule="evenodd" fill="#AED559"/>
	<path id="Path 915" d="M40.9727 30.2559L41.2236 28.1066L4.7334 28.1066L4.98438 30.2559L40.9727 30.2559Z" fill-rule="evenodd" fill="#7FAB38"/>
	<path id="Path 916" d="M38.8477 28.1066L36.8672 45.0374C36.7207 46.2949 35.6553 47.2433 34.3887 47.2433L36.7646 47.2433C38.0312 47.2433 39.0967 46.2949 39.2441 45.0374L41.2246 28.1066L38.8477 28.1066Z" fill-rule="evenodd" fill="#7FAB38"/>
	<path id="Path 917" d="M2.14844 24.4612L2.14844 26.7882C2.14844 27.5162 2.73926 28.1066 3.4668 28.1066L42.4902 28.1066C43.2188 28.1066 43.8086 27.5162 43.8086 26.7882L43.8086 24.4612C43.8086 23.7327 43.2188 23.1423 42.4902 23.1423L3.4668 23.1423C2.73926 23.1423 2.14844 23.7327 2.14844 24.4612Z" fill-rule="evenodd" fill="#90B6E1"/>
	<path id="Path 918" d="M42.4902 23.1423L40.0762 23.1423C40.8047 23.1423 41.3945 23.7327 41.3945 24.4612L41.3945 26.7882C41.3945 27.5162 40.8047 28.1066 40.0762 28.1066L42.4902 28.1066C43.2188 28.1066 43.8096 27.5162 43.8096 26.7882L43.8096 24.4612C43.8096 23.7327 43.2188 23.1423 42.4902 23.1423Z" fill-rule="evenodd" fill="#5692D8"/>
	<path id="Path 919" d="M44.8027 43.2794C44.2852 43.3527 43.749 43.1173 43.4629 42.6405L34.001 26.8733C33.6191 26.2372 33.8262 25.4122 34.4619 25.0304C35.0977 24.6488 35.9229 24.8549 36.3047 25.4911L45.7666 41.2581C46.1484 41.8939 45.9414 42.7194 45.3057 43.1011C45.1465 43.1965 44.9756 43.2549 44.8027 43.2794Z" fill-rule="evenodd" fill="#575B7A"/>
	<path id="Path 920" d="M1.15527 43.2794C1.67285 43.3527 2.20898 43.1173 2.49512 42.6405L11.957 26.8733C12.3389 26.2372 12.1318 25.4122 11.4961 25.0304C10.8604 24.6488 10.0352 24.8549 9.65332 25.4911L0.191406 41.2581C-0.19043 41.8943 0.0166016 42.7194 0.652344 43.1011C0.811523 43.1965 0.982422 43.2549 1.15527 43.2794Z" fill-rule="evenodd" fill="#575B7A"/>
	<path id="Path 921" d="M14.9023 35.0444C14.9023 35.7023 14.3691 36.2357 13.7109 36.2357C13.0537 36.2357 12.5205 35.7023 12.5205 35.0444L12.5205 32.6858C12.5205 32.028 13.0537 31.4945 13.7109 31.4945C14.3691 31.4945 14.9023 32.028 14.9023 32.6858L14.9023 35.0444Z" fill-rule="evenodd" fill="#7FAB38"/>
	<path id="Path 922" d="M19.5371 42.7513C19.5371 43.4091 19.0029 43.9425 18.3457 43.9425C17.6875 43.9425 17.1543 43.4091 17.1543 42.7513L17.1543 40.3925C17.1543 39.7347 17.6875 39.2013 18.3457 39.2013C19.0029 39.2013 19.5371 39.7347 19.5371 40.3925L19.5371 42.7513Z" fill-rule="evenodd" fill="#7FAB38"/>
	<path id="Path 923" d="M24.1699 35.0444C24.1699 35.7023 23.6367 36.2357 22.9795 36.2357C22.3213 36.2357 21.7881 35.7023 21.7881 35.0444L21.7881 32.6858C21.7881 32.028 22.3213 31.4945 22.9795 31.4945C23.6367 31.4945 24.1699 32.028 24.1699 32.6858L24.1699 35.0444Z" fill-rule="evenodd" fill="#7FAB38"/>
	<path id="Path 924" d="M28.8037 42.7513C28.8037 43.4091 28.2695 43.9425 27.6123 43.9425C26.9541 43.9425 26.4209 43.4091 26.4209 42.7513L26.4209 40.3925C26.4209 39.7347 26.9541 39.2013 27.6123 39.2013C28.2695 39.2013 28.8037 39.7347 28.8037 40.3925L28.8037 42.7513Z" fill-rule="evenodd" fill="#7FAB38"/>
	<path id="Path 925" d="M33.4375 35.0444C33.4375 35.7023 32.9043 36.2357 32.2461 36.2357C31.5889 36.2357 31.0557 35.7023 31.0557 35.0444L31.0557 32.6858C31.0557 32.028 31.5889 31.4945 32.2461 31.4945C32.9043 31.4945 33.4375 32.028 33.4375 32.6858L33.4375 35.0444Z" fill-rule="evenodd" fill="#7FAB38"/>
	<path id="Path 926" d="M37.8066 20.4352L34.2832 20.4352C33.9004 20.4352 33.5908 20.1251 33.5908 19.743C33.5908 19.3607 33.9004 19.051 34.2832 19.051L37.8066 19.051C38.1885 19.051 38.499 19.3607 38.499 19.743C38.499 20.1251 38.1885 20.4352 37.8066 20.4352Z" fill-rule="evenodd" fill="#C5C4CC"/>
	<defs/>
</svg>
