<svg width="49.851562" height="49.865356" viewBox="0 0 49.8516 49.8654" fill="none" xmlns="http://www.w3.org/2000/svg" xmlns:xlink="http://www.w3.org/1999/xlink">
	<desc>
			Created with Pixso.
	</desc>
	<path id="Path 797" d="M16.3213 34.3876C16.0068 34.3953 15.7197 34.3992 15.4639 34.4011C15.4658 34.146 15.4697 33.8585 15.4775 33.5439C15.5068 32.4603 14.373 31.7155 13.3828 32.1888C13.3389 32.2103 8.90137 34.2775 1.74805 32.8464C0.844727 32.6659 0 33.3571 0 34.2794C0 37.3624 1.00977 40.0696 2.77148 41.7051C4.62402 43.4258 6.43848 45.2393 8.16016 47.094C9.7959 48.8552 12.5029 49.8654 15.5859 49.8654C16.5117 49.8654 17.1982 49.017 17.0186 48.1178C15.5879 40.9639 17.6553 36.5267 17.6768 36.4839C18.1523 35.4934 17.4092 34.3563 16.3213 34.3876Z" fill-rule="evenodd" fill="#4880FA"/>
	<path id="Path 798" d="M17.6758 36.4838C17.6543 36.5266 15.5869 40.9639 17.0176 48.1178C17.1982 49.0184 16.5088 49.8654 15.585 49.8654C12.502 49.8654 9.79492 48.8551 8.15918 47.094C7.29883 46.1676 6.41504 45.2499 5.51465 44.3499L15.4629 34.4011C15.7188 34.3992 16.0059 34.3953 16.3203 34.3875C17.4062 34.3563 18.1523 35.4916 17.6758 36.4838Z" fill-rule="evenodd" fill="#365FDE"/>
	<path id="Path 799" d="M23.6982 43.6125C23.6006 43.453 21.3115 39.6566 21.0166 35.3823C20.9639 34.6278 21.4961 33.9581 22.2432 33.8387C27.4121 33.0134 31.6787 31.4071 34.9268 29.0643C35.8916 28.3684 37.2422 29.0594 37.2422 30.2494C37.2422 32.2561 36.792 34.4003 35.9404 36.4503C33.5342 42.2374 25.6211 44.1923 25.2852 44.2727C24.6729 44.4193 24.0303 44.1571 23.6982 43.6125Z" fill-rule="evenodd" fill="#F2D131"/>
	<path id="Path 800" d="M16.7539 28.1423C15.2617 26.1525 10.3389 26.2047 8.73145 26.3802C7.86328 26.4739 7.11035 25.7943 7.11035 24.9277C7.11035 24.754 7.12207 20.6219 8.12109 16.2266C9.17871 11.5731 11.3838 6.51001 16.0781 5.57104C20.6807 4.65076 23.4229 5.98059 24.9141 7.2583C26.5635 8.67224 27.0684 10.3163 27.1211 10.499C27.2539 10.9639 27.1484 11.4645 26.8389 11.8359C19.2598 20.9309 20.9648 23.5966 19.2803 27.8085C18.8564 28.8652 17.4375 29.0531 16.7539 28.1423Z" fill-rule="evenodd" fill="#FAF17D"/>
	<path id="Path 801" d="M39.2256 29.2374C34.8955 33.567 28.752 35.7584 22.7041 36.7245C19.9521 37.1624 16.8018 37.4019 13.9463 37.2972C13.2002 37.2542 12.6104 36.6614 12.5674 35.9189C12.5654 35.8809 12.5166 34.9633 12.5566 33.4661C12.7725 25.4442 14.9512 16.3174 20.6279 10.6395C29.8887 1.37854 44.9092 -2.28992 48.4229 1.44177C52.1406 5.3103 48.4385 20.0223 39.2256 29.2374Z" fill-rule="evenodd" fill="#93C5EC"/>
	<path id="Path 802" d="M39.2256 29.2373C34.8955 33.567 28.752 35.7584 22.7041 36.7245C19.9512 37.1624 16.8018 37.4017 13.9463 37.2972C13.5752 37.2758 13.2393 37.118 12.9941 36.8706L48.4229 1.44177C52.1396 5.31018 48.4385 20.0223 39.2256 29.2373Z" fill-rule="evenodd" fill="#6AA6FB"/>
	<path id="Path 803" d="M48.4229 1.44165C46.7754 -0.307861 43.1719 -0.118896 40.7979 0.239624C37.0752 0.802612 33.0342 2.27258 29.7109 4.03088C29.7109 4.03088 30.0312 8.93457 35.4609 14.3634C40.8896 19.7932 45.8486 20.1594 45.8486 20.1594C48.2607 15.5791 49.5117 11.0543 49.7891 7.71313C49.959 5.66943 49.8564 2.93408 48.4229 1.44165Z" fill-rule="evenodd" fill="#6AA6FB"/>
	<path id="Path 804" d="M49.7891 7.71301C49.5117 11.0553 48.2607 15.5791 45.8477 20.1594C45.8477 20.1594 40.9023 19.7941 35.4814 14.3828L48.4229 1.44165C49.8564 2.93396 49.959 5.66931 49.7891 7.71301Z" fill-rule="evenodd" fill="#4880FA"/>
	<path id="Path 805" d="M39.7432 9.24451C38.4756 9.24451 37.7783 7.71082 38.71 6.74976C39.3691 6.1095 40.3594 6.22424 40.873 6.85693C41.6514 7.81055 40.9736 9.24451 39.7432 9.24451Z" fill-rule="evenodd" fill="#25429A"/>
	<defs/>
</svg>
