<svg width="49.064453" height="49.064941" viewBox="0 0 49.0645 49.0649" fill="none" xmlns="http://www.w3.org/2000/svg" xmlns:xlink="http://www.w3.org/1999/xlink">
	<desc>
			Created with Pixso.
	</desc>
	<path id="Path 710" d="M33.8379 6.76758C33.8379 6.76758 33.8379 1.69189 30.4541 0C27.0703 1.69189 27.0703 6.76758 27.0703 6.76758L27.0703 14.3811L33.8379 14.3811L33.8379 6.76758Z" fill-rule="evenodd" fill="#35A872"/>
	<path id="Path 711" d="M32.9922 17.7649C32.9922 17.7649 33.9922 9.30542 43.9893 9.30542C43.9893 9.30542 38.9912 13.5352 38.9912 17.7649L32.9922 17.7649Z" fill-rule="evenodd" fill="#248256"/>
	<path id="Path 712" d="M27.916 17.7649C27.916 17.7649 26.916 9.30542 16.9189 9.30542C16.9189 9.30542 21.918 13.5352 21.918 17.7649L27.916 17.7649Z" fill-rule="evenodd" fill="#248256"/>
	<path id="Path 713" d="M29.6084 13.5352C29.6084 13.5352 30.6084 5.07568 40.6055 5.07568C40.6055 5.07568 35.6064 9.30542 35.6064 13.5352L29.6084 13.5352Z" fill-rule="evenodd" fill="#319C6A"/>
	<path id="Path 714" d="M31.2998 13.5352C31.2998 13.5352 30.2998 5.07568 20.3027 5.07568C20.3027 5.07568 25.3018 9.30542 25.3018 13.5352L31.2998 13.5352Z" fill-rule="evenodd" fill="#2E9163"/>
	<rect id="Rectangle 1461" x="16.503906" y="12.489624" rx="13.548149" width="27.096298" height="32.114132" fill="#F7B030"/>
	<path id="Path 715" d="M40.0547 31.1096L35.2686 35.7507L30.4668 31.0896L35.2529 26.4432L40.0547 31.1096Z" fill-rule="evenodd" fill="#E09F2C"/>
	<path id="Path 716" d="M30.4668 31.0896L25.666 35.7507L20.8789 31.1086L25.6797 26.4412L30.4668 31.0896Z" fill-rule="evenodd" fill="#E09F2C"/>
	<path id="Path 717" d="M30.2285 12.6914L25.667 17.1252L23.2422 14.7693C25.335 13.447 27.7529 12.7279 30.2285 12.6914Z" fill-rule="evenodd" fill="#E09F2C"/>
	<path id="Path 718" d="M30.4648 21.7883L25.6797 26.441L20.8779 21.7799L25.667 17.1251L30.4648 21.7883Z" fill-rule="evenodd" fill="#E09F2C"/>
	<path id="Path 719" d="M40.0566 21.78L35.2529 26.4432L30.4648 21.7885L35.2646 17.123L40.0566 21.78Z" fill-rule="evenodd" fill="#E09F2C"/>
	<path id="Path 720" d="M37.6777 14.7766L35.2646 17.123L30.7061 12.6914C33.1777 12.733 35.5898 13.4545 37.6777 14.7766Z" fill-rule="evenodd" fill="#E09F2C"/>
	<path id="Path 721" d="M20.8779 21.78L16.9326 25.6152C17.0234 23.5072 17.6094 21.4501 18.6426 19.6101L20.8779 21.78Z" fill-rule="evenodd" fill="#E09F2C"/>
	<path id="Path 722" d="M43.9746 25.5878L40.0566 21.78L42.2744 19.6271C43.2979 21.4543 43.8799 23.4956 43.9746 25.5878Z" fill-rule="evenodd" fill="#E09F2C"/>
	<path id="Path 723" d="M43.9893 27.2946L43.9893 31.3002C43.9902 32.3962 43.8574 33.4885 43.5947 34.5527L40.0547 31.1097L43.9893 27.2946Z" fill-rule="evenodd" fill="#E09F2C"/>
	<path id="Path 724" d="M20.8789 31.1086L17.3174 34.5718C17.0518 33.5015 16.918 32.4028 16.9189 31.3L16.9189 27.2692L20.8789 31.1086Z" fill-rule="evenodd" fill="#E09F2C"/>
	<path id="Path 725" d="M25.666 35.7507L20.6445 40.6265C19.0293 38.9304 17.8838 36.844 17.3174 34.5717L20.8789 31.1086L25.666 35.7507Z" fill-rule="evenodd" fill="#F7B030"/>
	<path id="Path 726" d="M40.2764 40.6128C37.7227 43.306 34.1748 44.8325 30.4639 44.8351C26.752 44.8376 23.2021 43.3162 20.6445 40.6265L25.666 35.7507L30.4668 40.4066L35.2686 35.7507L40.2764 40.6128Z" fill-rule="evenodd" fill="#E09F2C"/>
	<path id="Path 727" d="M34.3926 44.2135C31.8418 44.9784 29.0908 45.0262 26.541 44.26L30.4658 40.4067L34.3926 44.2135Z" fill-rule="evenodd" fill="#F7B030"/>
	<path id="Path 728" d="M49.0645 32.146C49.0645 40.3221 40.3535 49.0649 29.6084 49.0649C18.8623 49.0649 10.1514 40.3221 10.1514 32.146L49.0645 32.146Z" fill-rule="evenodd" fill="#35A872"/>
	<path id="Path 729" d="M45.6465 32.146C45.0957 38.8396 38.126 45.6812 29.6084 45.6812C21.0908 45.6812 14.1211 38.8396 13.5703 32.146L45.6465 32.146Z" fill-rule="evenodd" fill="#D13330"/>
	<path id="Path 730" d="M41.4521 35.5298C41.4521 35.9969 41.0732 36.3757 40.6055 36.3757C40.1387 36.3757 39.7598 35.9969 39.7598 35.5298C39.7598 35.0626 40.1387 33.8379 40.6055 33.8379C41.0732 33.8379 41.4521 35.0626 41.4521 35.5298Z" fill-rule="evenodd" fill="#5E3725"/>
	<path id="Path 731" d="M37.2217 39.7595C37.2217 40.2268 36.8428 40.6055 36.375 40.6055C35.9082 40.6055 35.5293 40.2268 35.5293 39.7595C35.5293 39.2924 35.9082 38.0676 36.375 38.0676C36.8428 38.0676 37.2217 39.2924 37.2217 39.7595Z" fill-rule="evenodd" fill="#5E3725"/>
	<path id="Path 732" d="M32.9912 37.2217C32.9912 37.6888 32.6133 38.0676 32.1455 38.0676C31.6787 38.0676 31.2998 37.6888 31.2998 37.2217C31.2998 36.7545 31.6787 35.5298 32.1455 35.5298C32.6133 35.5298 32.9912 36.7545 32.9912 37.2217Z" fill-rule="evenodd" fill="#5E3725"/>
	<path id="Path 733" d="M27.917 37.2217C27.917 37.6888 27.5381 38.0676 27.0703 38.0676C26.6035 38.0676 26.2246 37.6888 26.2246 37.2217C26.2246 36.7545 26.6035 35.5298 27.0703 35.5298C27.5381 35.5298 27.917 36.7545 27.917 37.2217Z" fill-rule="evenodd" fill="#5E3725"/>
	<path id="Path 734" d="M30.4541 42.2974C30.4541 42.7645 30.0752 43.1433 29.6074 43.1433C29.1406 43.1433 28.7617 42.7645 28.7617 42.2974C28.7617 41.8301 29.1406 40.6055 29.6074 40.6055C30.0752 40.6055 30.4541 41.8301 30.4541 42.2974Z" fill-rule="evenodd" fill="#5E3725"/>
	<path id="Path 735" d="M21.9941 39.7595C21.9941 40.2268 22.373 40.6055 22.8398 40.6055C23.3076 40.6055 23.6865 40.2268 23.6865 39.7595C23.6865 39.2924 23.3076 38.0676 22.8398 38.0676C22.373 38.0676 21.9941 39.2924 21.9941 39.7595Z" fill-rule="evenodd" fill="#5E3725"/>
	<path id="Path 736" d="M16.9092 27.0703C16.2354 27.0703 14.4775 27.5306 13.7529 28.075C12.625 28.9362 11.0615 28.9362 9.93359 28.075C9.20898 27.5308 7.45117 27.0703 6.77734 27.0703C2.36523 27.0703 -0.617188 31.0437 0.108398 35.9169L0.637695 39.4673C0.953125 41.6177 1.6543 43.6931 2.70898 45.5938C4.22266 48.3079 7.12695 49.6201 9.89941 48.8439L11.3145 48.3376C11.6562 48.2147 12.0303 48.2147 12.3721 48.3376L13.7871 48.8439C16.5596 49.6201 19.4639 48.3079 20.9785 45.5938C22.0322 43.6931 22.7344 41.6177 23.0498 39.4673L23.5781 35.9169C24.3027 31.0437 21.3213 27.0703 16.9092 27.0703Z" fill-rule="evenodd" fill="#EB423F"/>
	<path id="Path 737" d="M11.8428 32.9918C11.376 32.9918 10.9971 32.613 10.9971 32.1459C10.9971 32.0665 10.999 30.1766 11.2119 27.9418C11.5068 24.854 12.0508 22.6953 12.8311 21.5253C13.0898 21.1365 13.6152 21.0315 14.0039 21.2906C14.3926 21.5498 14.498 22.075 14.2393 22.4637C12.9688 24.3688 12.6895 30.0989 12.6895 32.1459C12.6895 32.613 12.3105 32.9918 11.8428 32.9918Z" fill-rule="evenodd" fill="#5E3725"/>
	<path id="Path 738" d="M14.9785 30.7019C14.6484 30.3715 14.1123 30.3715 13.7822 30.7019C13.7764 30.708 13.127 31.3 11.8428 31.3C10.5586 31.3 9.91992 30.7173 9.89355 30.6924C9.5625 30.3623 9.03613 30.3718 8.70605 30.7024C8.37598 31.033 8.37695 31.5686 8.70703 31.8987C8.82031 32.012 9.85938 32.9919 11.8428 32.9919C13.8281 32.9919 14.8672 32.0103 14.9785 31.8982C15.3096 31.5679 15.3096 31.0322 14.9785 30.7019Z" fill-rule="evenodd" fill="#C7312E"/>
	<defs/>
</svg>
