<svg width="46.623047" height="48.245728" viewBox="0 0 46.623 48.2457" fill="none" xmlns="http://www.w3.org/2000/svg" xmlns:xlink="http://www.w3.org/1999/xlink">
	<desc>
			Created with Pixso.
	</desc>
	<path id="Path 739" d="M0 0.952026L12.8369 0.952026L10.4238 13.8176L2.41211 13.8176L0 0.952026Z" fill-rule="evenodd" fill="#88B337"/>
	<path id="Path 740" d="M2.62695 14.8203L0 0.952026L1.5791 0.656128L4.20703 14.5244L2.62695 14.8203Z" fill-rule="evenodd" fill="#6B962A"/>
	<path id="Path 741" d="M10.2598 14.8701L8.67969 14.5742L11.2578 0.656128L12.8369 0.952026L10.2598 14.8701Z" fill-rule="evenodd" fill="#6B962A"/>
	<rect id="Rectangle 1462" x="5.614258" width="1.608223" height="11.257373" fill="#6B962A"/>
	<rect id="Rectangle 1463" x="19.284180" y="36.184326" width="8.040928" height="11.257373" fill="#88B337"/>
	<path id="Path 742" d="M28.9326 12.8655L28.9326 9.64917C28.9326 4.76428 32.8926 0.804077 37.7773 0.804077C42.6621 0.804077 46.623 4.76428 46.623 9.64917L46.623 29.7516C46.623 32.311 45.6055 34.765 43.7959 36.5742L37.7773 42.5938L31.7588 36.5742C29.9561 34.7819 28.9365 32.3414 28.9326 29.7997L28.9326 12.8655Z" fill-rule="evenodd" fill="#88B337"/>
	<path id="Path 743" d="M37.7773 0.804077C36.9619 0.805664 36.1504 0.920654 35.3652 1.14587C39.1689 2.22412 41.7949 5.69543 41.7979 9.64917L41.7979 29.7515C41.7979 32.311 40.7812 34.765 38.9717 36.5742L35.3652 40.1814L37.7773 42.5938L43.7959 36.5742C45.6055 34.765 46.623 32.3109 46.623 29.7515L46.623 9.64917C46.623 4.76428 42.6621 0.804077 37.7773 0.804077Z" fill-rule="evenodd" fill="#7BA825"/>
	<path id="Path 744" d="M43.1709 15.8463L42.0342 14.7094L38.582 18.1614L38.582 13.1985L43.1709 8.6095L42.0342 7.47241L38.582 10.9244L38.582 5.62866L36.9736 5.62866L36.9736 10.9244L33.5215 7.47241L32.3848 8.6095L36.9736 13.1985L36.9736 18.1614L33.7578 14.9449L32.6201 16.0819L36.9736 20.4353L36.9736 48.2457L38.582 48.2457L38.582 34.9091L43.1709 30.3201L42.0342 29.183L38.582 32.6351L38.582 27.6721L43.1709 23.0831L42.0342 21.9462L38.582 25.3982L38.582 20.4353L43.1709 15.8463Z" fill-rule="evenodd" fill="#6B962A"/>
	<rect id="Rectangle 1464" x="24.108398" y="43.421143" width="3.216352" height="1.608223" fill="#638724"/>
	<rect id="Rectangle 1465" x="19.284180" y="41.812988" width="2.412288" height="1.608223" fill="#638724"/>
	<path id="Path 745" d="M10.1348 13.6697L2.70117 13.6697C1.36914 13.6705 0.289062 14.7504 0.290039 16.0828C0.290039 16.1777 0.295898 16.2733 0.306641 16.3674L3.7207 45.0464C3.89844 46.5363 5.25098 47.5994 6.74121 47.4209C7.98633 47.2721 8.9668 46.2911 9.11621 45.0464L12.5469 16.082C12.5469 14.7496 11.4668 13.6697 10.1348 13.6697Z" fill-rule="evenodd" fill="#F46B27"/>
	<path id="Path 746" d="M10.1348 13.6697L6.41797 13.6697C7.75 13.6697 8.83008 14.7496 8.83008 16.0819L5.39941 45.0463C5.32227 45.6791 5.02539 46.2637 4.55957 46.6987C5.64551 47.7288 7.36133 47.683 8.39062 46.5966C8.79297 46.172 9.04688 45.6276 9.11523 45.0463L12.5469 16.0819C12.5469 14.7496 11.4668 13.6697 10.1348 13.6697Z" fill-rule="evenodd" fill="#E85925"/>
	<path id="Path 747" d="M4.80957 17.6901L0.463867 17.6901L0.655273 19.2982L4.80957 19.2982L4.80957 17.6901Z" fill-rule="evenodd" fill="#DE4C3C"/>
	<path id="Path 748" d="M4.00586 22.5146L1.03906 22.5146L1.23047 24.1229L4.00586 24.1229L4.00586 22.5146Z" fill-rule="evenodd" fill="#DE4C3C"/>
	<path id="Path 749" d="M5.61426 32.1638L2.1875 32.1638L2.37891 33.7721L5.61426 33.7721L5.61426 32.1638Z" fill-rule="evenodd" fill="#DE4C3C"/>
	<path id="Path 750" d="M6.41797 36.9884L6.41797 38.5966L9.87988 38.5966L10.0703 36.9884L6.41797 36.9884Z" fill-rule="evenodd" fill="#DE4C3C"/>
	<path id="Path 751" d="M5.61426 41.813L3.33594 41.813L3.52734 43.4213L5.61426 43.4213L5.61426 41.813Z" fill-rule="evenodd" fill="#DE4C3C"/>
	<rect id="Rectangle 1466" x="6.417969" y="17.690063" width="2.412288" height="1.608223" fill="#DE4C3C"/>
	<path id="Path 752" d="M19.2842 36.9883L19.2842 40.0358C21.8076 41.3328 24.8018 41.3328 27.3252 40.0358L27.3252 36.9883L19.2842 36.9883Z" fill-rule="evenodd" fill="#7BA825"/>
	<path id="Path 753" d="M35.0967 22.0321C36.168 18.1879 33.9199 14.2028 30.0752 13.1317C27.6953 12.4683 25.1416 13.0673 23.3037 14.719C20.3428 12.0461 15.7754 12.281 13.1025 15.2424C11.4414 17.0837 10.8398 19.6489 11.5117 22.0363C7.67871 23.1683 5.48926 27.1937 6.62207 31.0267C7.75391 34.8599 11.7793 37.0487 15.6123 35.9165C15.793 35.8634 15.9717 35.8022 16.1475 35.7355C18.998 39.6901 24.5146 40.5851 28.4678 37.7345C29.2373 37.1797 29.9121 36.5051 30.4668 35.7355C34.2051 37.1499 38.3828 35.266 39.7959 31.5277C41.21 27.7896 39.3271 23.6122 35.5889 22.1986C35.4268 22.1367 35.2627 22.0813 35.0967 22.0321Z" fill-rule="evenodd" fill="#6B962A"/>
	<path id="Path 754" d="" fill-rule="evenodd" fill="#6B962A"/>
	<path id="Path 755" d="M35.0977 22.0321C36.1748 18.1951 33.9375 14.2107 30.0996 13.1333C28.6582 12.7289 27.126 12.7819 25.7168 13.2869C29.3057 14.5428 31.3008 18.3711 30.2725 22.0322C34.0889 23.2207 36.2188 27.2773 35.0312 31.0936C34.3545 33.2687 32.6924 34.9974 30.5459 35.7605C34.2891 37.1628 38.46 35.266 39.8623 31.5229C41.2646 27.7798 39.3682 23.609 35.625 22.2067C35.4512 22.1423 35.2754 22.0836 35.0977 22.0321Z" fill-rule="evenodd" fill="#648F24"/>
	<rect id="Rectangle 1467" x="22.500000" y="35.380249" width="1.608223" height="1.608223" fill="#638724"/>
	<rect id="Rectangle 1468" x="22.500000" y="28.947388" width="1.608223" height="1.608223" fill="#638724"/>
	<rect id="Rectangle 1469" x="19.284180" y="30.555664" width="1.608223" height="1.608223" fill="#638724"/>
	<rect id="Rectangle 1470" x="19.284180" y="33.772095" width="1.608223" height="1.608223" fill="#638724"/>
	<rect id="Rectangle 1471" x="25.716797" y="33.772095" width="1.608223" height="1.608223" fill="#638724"/>
	<rect id="Rectangle 1472" x="17.675781" y="22.514648" width="1.608223" height="1.608223" fill="#638724"/>
	<rect id="Rectangle 1473" x="17.675781" y="16.081909" width="1.608223" height="1.608223" fill="#638724"/>
	<rect id="Rectangle 1474" x="14.458984" y="17.690063" width="1.608223" height="1.608223" fill="#638724"/>
	<rect id="Rectangle 1475" x="27.325195" y="22.514648" width="1.608223" height="1.608223" fill="#638724"/>
	<rect id="Rectangle 1476" x="24.108398" y="17.690063" width="1.608223" height="1.608223" fill="#638724"/>
	<rect id="Rectangle 1477" x="30.541016" y="17.690063" width="1.608223" height="1.608223" fill="#638724"/>
	<rect id="Rectangle 1478" x="24.108398" y="20.906616" width="1.608223" height="1.608223" fill="#638724"/>
	<rect id="Rectangle 1479" x="27.325195" y="19.298340" width="1.608223" height="1.608223" fill="#638724"/>
	<rect id="Rectangle 1480" x="12.850586" y="24.926880" width="1.608223" height="1.608223" fill="#638724"/>
	<rect id="Rectangle 1481" x="9.634766" y="26.535156" width="1.608223" height="1.608223" fill="#638724"/>
	<rect id="Rectangle 1482" x="9.634766" y="29.751587" width="1.608223" height="1.608223" fill="#638724"/>
	<rect id="Rectangle 1483" x="16.067383" y="29.751587" width="1.608223" height="1.608223" fill="#638724"/>
	<rect id="Rectangle 1484" x="12.850586" y="28.143433" width="1.608223" height="1.608223" fill="#638724"/>
	<rect id="Rectangle 1485" x="32.149414" y="31.359741" width="1.608223" height="1.608223" fill="#638724"/>
	<rect id="Rectangle 1486" x="32.149414" y="24.926880" width="1.608223" height="1.608223" fill="#638724"/>
	<rect id="Rectangle 1487" x="35.365234" y="26.535156" width="1.608223" height="1.608223" fill="#638724"/>
	<rect id="Rectangle 1488" x="28.932617" y="29.751587" width="1.608223" height="1.608223" fill="#638724"/>
	<rect id="Rectangle 1489" x="35.365234" y="29.751587" width="1.608223" height="1.608223" fill="#638724"/>
	<defs/>
</svg>
