<svg width="105.006836" height="38.883789" viewBox="0 0 105.007 38.8838" fill="none" xmlns="http://www.w3.org/2000/svg" xmlns:xlink="http://www.w3.org/1999/xlink">
	<desc>
			Created with Pixso.
	</desc>
	<path id="Path 1145" d="M27.3535 8.60327L27.3535 24.0525C27.3838 26.4146 26.7793 28.7473 25.5674 30.7769C24.3857 32.7156 22.6895 34.2908 20.6602 35.3196C16.2373 37.5015 11.0879 37.5015 6.66602 35.3196C4.63477 34.2908 2.93945 32.7156 1.78711 30.7769C0.575195 28.7473 -0.0292969 26.4146 0.000976562 24.0525L0.000976562 8.66333C0.000976562 8.45215 0.0917969 8.27051 0.211914 8.11816C0.364258 7.96729 0.575195 7.90552 0.758789 7.90552L7.24023 7.90552L7.24023 23.8398C7.24023 26.0203 7.81543 27.6865 8.96777 28.8982C10.1777 30.1101 11.9053 30.7769 13.6318 30.686C15.3887 30.7769 17.0859 30.1101 18.3574 28.8982C19.5078 27.6865 20.084 26.0203 20.084 23.8398L20.084 7.90552L26.5977 7.90552C27.0205 7.87646 27.3535 8.20898 27.3535 8.60327Z" fill-rule="evenodd" fill="#019102"/>
	<path id="Path 1146" d="M26.4756 2.84717C26.4756 4.39307 25.2041 5.66504 23.6572 5.69434C22.082 5.69434 20.8105 4.42236 20.7812 2.84717C20.7812 1.27197 22.082 0 23.6289 0C25.2041 0 26.4756 1.27197 26.4756 2.84717Z" fill-rule="evenodd" fill="#019102"/>
	<path id="Path 1147" d="M6.75391 2.84717C6.75391 4.42236 5.48242 5.69434 3.90723 5.69434C2.3623 5.66504 1.09082 4.42236 1.09082 2.84717C1.09082 1.27197 2.3623 0.0307617 3.90723 0.0307617C5.48242 0.0307617 6.75391 1.27197 6.75391 2.84717Z" fill-rule="evenodd" fill="#019102"/>
	<path id="Path 21238" d="M47.001 24.6208C47.001 25.3845 46.8955 26.0762 46.6855 26.696C46.4756 27.3159 46.1846 27.8638 45.8145 28.3396C45.4434 28.8154 45 29.2251 44.4863 29.5681C43.9707 29.9111 43.4043 30.1934 42.7842 30.4148C42.1641 30.6362 41.5029 30.7993 40.8008 30.9045C40.0977 31.0098 39.3145 31.0623 38.4512 31.0623L32.7402 31.0623C32.375 31.0623 32.0684 30.9543 31.8184 30.7385C31.5703 30.5227 31.4453 30.1714 31.4453 29.6843L31.4453 10.9578C31.4453 10.4707 31.5703 10.1194 31.8184 9.90356C32.0684 9.68774 32.375 9.57983 32.7402 9.57983L38.1357 9.57983C39.4531 9.57983 40.5684 9.69043 41.4805 9.91187C42.3936 10.1333 43.1631 10.468 43.7891 10.9163C44.4141 11.3645 44.8926 11.9316 45.2246 12.6179C45.5566 13.3042 45.7227 14.1121 45.7227 15.0417C45.7227 15.562 45.6562 16.0518 45.5234 16.511C45.3906 16.9702 45.1973 17.3882 44.9424 17.7644C44.6875 18.1406 44.375 18.4727 44.0039 18.7605C43.6338 19.0483 43.21 19.2808 42.7344 19.4578C43.3428 19.5684 43.9043 19.7622 44.4199 20.0388C44.9336 20.3154 45.3818 20.6724 45.7637 21.1096C46.1465 21.5469 46.4473 22.0586 46.6689 22.6453C46.8906 23.2319 47.001 23.8904 47.001 24.6208ZM41.3564 15.573C41.3564 15.1414 41.29 14.7539 41.1572 14.4109C41.0244 14.0679 40.8252 13.7827 40.5596 13.5559C40.2939 13.3291 39.959 13.1548 39.5547 13.033C39.1514 12.9111 38.6113 12.8503 37.9365 12.8503L35.7285 12.8503L35.7285 18.4285L38.1689 18.4285C38.7998 18.4285 39.3037 18.3538 39.6797 18.2043C40.0557 18.0549 40.3682 17.8501 40.6172 17.5901C40.8672 17.3301 41.0518 17.0256 41.1738 16.677C41.2959 16.3284 41.3564 15.9604 41.3564 15.573ZM42.4688 24.7703C42.4688 24.2722 42.3857 23.8267 42.2197 23.4338C42.0537 23.041 41.8105 22.7117 41.4893 22.446C41.168 22.1804 40.7588 21.9756 40.2607 21.8318C39.7627 21.688 39.1152 21.616 38.3184 21.616L35.7285 21.616L35.7285 27.7253L38.8828 27.7253C39.4912 27.7253 40.0029 27.6616 40.418 27.5344C40.834 27.4072 41.1934 27.219 41.498 26.97C41.8018 26.7209 42.04 26.4111 42.2109 26.0403C42.3828 25.6694 42.4688 25.2461 42.4688 24.7703ZM75.9873 29.3523C75.9873 29.6733 75.9707 29.9473 75.9375 30.1741C75.9043 30.4009 75.8604 30.5808 75.8047 30.7136C75.749 30.8464 75.6777 30.9377 75.5889 30.9875C75.5 31.0374 75.4004 31.0623 75.29 31.0623L65.6113 31.0623C65.3125 31.0623 65.083 30.9626 64.9219 30.7634C64.7617 30.5642 64.6816 30.2378 64.6816 29.7839L64.6816 29.0203C64.6816 28.821 64.6895 28.6411 64.707 28.4807C64.7227 28.3203 64.7559 28.1653 64.8066 28.0159C64.8555 27.8665 64.9219 27.7144 65.0059 27.5593C65.0879 27.4043 65.1963 27.2329 65.3291 27.0447L70.874 18.4783L65.6279 18.4783C65.418 18.4783 65.249 18.3455 65.1211 18.0798C64.9941 17.8142 64.9307 17.3882 64.9307 16.8015C64.9307 16.4805 64.9443 16.2122 64.9727 15.9963C65 15.7805 65.041 15.6089 65.0967 15.4817C65.1523 15.3545 65.2236 15.2632 65.3125 15.2078C65.4014 15.1523 65.5059 15.1248 65.6279 15.1248L74.6758 15.1248C74.8311 15.1248 74.9639 15.1414 75.0742 15.1746C75.1846 15.2078 75.2764 15.2686 75.3477 15.3572C75.4199 15.4458 75.4756 15.5674 75.5137 15.7224C75.5527 15.8774 75.5723 16.071 75.5723 16.3035L75.5723 17.1169C75.5723 17.3384 75.5615 17.5347 75.5391 17.7063C75.5166 17.8779 75.4834 18.041 75.4395 18.196C75.3955 18.3511 75.332 18.5059 75.248 18.6609C75.166 18.8159 75.0684 18.9819 74.958 19.1589L69.4463 27.7087L75.29 27.7087C75.3896 27.7087 75.4834 27.731 75.5723 27.7751C75.6611 27.8193 75.7354 27.9023 75.7969 28.0242C75.8574 28.146 75.9043 28.3147 75.9375 28.5305C75.9707 28.7463 75.9873 29.0203 75.9873 29.3523ZM91.3271 30.5476C91.3271 30.7026 91.2715 30.8242 91.1611 30.9128C91.0508 31.0015 90.876 31.0649 90.6387 31.1038C90.4004 31.1426 90.0488 31.1619 89.584 31.1619C89.0859 31.1619 88.7236 31.1426 88.4961 31.1038C88.2695 31.0649 88.1094 31.0015 88.0156 30.9128C87.9209 30.8242 87.874 30.7026 87.874 30.5476L87.874 29.3689C87.2656 30.022 86.5703 30.531 85.791 30.8962C85.0098 31.2615 84.1445 31.4441 83.1924 31.4441C82.4062 31.4441 81.6846 31.3418 81.0254 31.137C80.3672 30.9321 79.7969 30.6279 79.3164 30.2239C78.834 29.8198 78.4609 29.3191 78.1953 28.7214C77.9297 28.1238 77.7969 27.4265 77.7969 26.6296C77.7969 25.7664 77.9658 25.0166 78.3027 24.3801C78.6406 23.7437 79.1445 23.218 79.8145 22.803C80.4834 22.3879 81.3164 22.0808 82.3125 21.8816C83.3086 21.6824 84.4648 21.5828 85.7822 21.5828L87.2266 21.5828L87.2266 20.6863C87.2266 20.2214 87.1797 19.8147 87.0859 19.4661C86.9912 19.1174 86.8359 18.8269 86.6211 18.5945C86.4043 18.3621 86.1172 18.1904 85.7578 18.0798C85.3975 17.9692 84.9521 17.9138 84.4209 17.9138C83.7236 17.9138 83.1016 17.9912 82.5527 18.1462C82.0059 18.3013 81.5215 18.4727 81.1006 18.6609C80.6797 18.8491 80.3281 19.0205 80.0469 19.1755C79.7637 19.3306 79.5342 19.408 79.3574 19.408C79.2354 19.408 79.1279 19.3691 79.0332 19.2917C78.9395 19.2144 78.8623 19.1035 78.8008 18.9597C78.7402 18.8159 78.6934 18.6387 78.6602 18.4285C78.627 18.2183 78.6104 17.9858 78.6104 17.7312C78.6104 17.3882 78.6377 17.1169 78.6934 16.9177C78.749 16.7185 78.8535 16.5386 79.0088 16.3782C79.1641 16.2178 79.4346 16.0405 79.8223 15.8469C80.21 15.6533 80.6631 15.4734 81.1836 15.3074C81.7041 15.1414 82.2715 15.0059 82.8848 14.9006C83.5 14.7954 84.1328 14.7429 84.7861 14.7429C85.9482 14.7429 86.9414 14.8564 87.7656 15.0833C88.5908 15.3101 89.2686 15.6587 89.7998 16.1292C90.3311 16.5996 90.7188 17.2056 90.9619 17.947C91.2051 18.6885 91.3271 19.5684 91.3271 20.5867L91.3271 30.5476ZM87.2266 24.2058L85.6328 24.2058C84.958 24.2058 84.3818 24.2556 83.9062 24.3552C83.4307 24.4548 83.043 24.6042 82.7441 24.8035C82.4453 25.0027 82.2266 25.2434 82.0879 25.5256C81.9502 25.8079 81.8809 26.1316 81.8809 26.4968C81.8809 27.1167 82.0771 27.6035 82.4707 27.9578C82.8633 28.312 83.4082 28.489 84.1055 28.489C84.6924 28.489 85.2314 28.3396 85.7246 28.0408C86.2168 27.7419 86.7178 27.3047 87.2266 26.7292L87.2266 24.2058ZM105.007 17.0671C105.007 17.4656 104.996 17.792 104.974 18.0466C104.951 18.3013 104.918 18.5005 104.874 18.6443C104.83 18.7881 104.771 18.8877 104.699 18.9431C104.628 18.9985 104.536 19.0261 104.426 19.0261C104.337 19.0261 104.237 19.0068 104.127 18.968C104.017 18.9292 103.892 18.8877 103.754 18.8435C103.615 18.7993 103.463 18.7578 103.297 18.719C103.131 18.6802 102.948 18.6609 102.749 18.6609C102.517 18.6609 102.284 18.708 102.052 18.802C101.819 18.896 101.578 19.0427 101.33 19.2419C101.08 19.4412 100.82 19.7068 100.549 20.0388C100.278 20.3708 99.9873 20.7803 99.6777 21.2673L99.6777 30.4978C99.6777 30.6084 99.6445 30.7053 99.5781 30.7883C99.5117 30.8713 99.3984 30.9404 99.2383 30.9958C99.0771 31.0513 98.8643 31.0928 98.5986 31.1204C98.333 31.1479 97.9951 31.1619 97.5859 31.1619C97.1768 31.1619 96.8389 31.1479 96.5732 31.1204C96.3076 31.0928 96.0947 31.0513 95.9336 30.9958C95.7734 30.9404 95.6602 30.8713 95.5938 30.7883C95.5273 30.7053 95.4941 30.6084 95.4941 30.4978L95.4941 15.6892C95.4941 15.5786 95.5215 15.4817 95.5771 15.3987C95.6328 15.3157 95.7324 15.2466 95.876 15.1912C96.0195 15.1357 96.2051 15.0942 96.4316 15.0667C96.6592 15.0391 96.9443 15.0251 97.2871 15.0251C97.6416 15.0251 97.9346 15.0391 98.167 15.0667C98.3994 15.0942 98.5791 15.1357 98.707 15.1912C98.834 15.2466 98.9248 15.3157 98.9805 15.3987C99.0361 15.4817 99.0635 15.5786 99.0635 15.6892L99.0635 17.532C99.4512 16.9785 99.8164 16.522 100.159 16.1624C100.502 15.8027 100.829 15.5176 101.139 15.3074C101.448 15.0972 101.759 14.9504 102.068 14.8674C102.378 14.7844 102.688 14.7429 102.998 14.7429C103.142 14.7429 103.297 14.7512 103.463 14.7678C103.629 14.7844 103.801 14.812 103.978 14.8508C104.154 14.8896 104.31 14.9338 104.442 14.9836C104.575 15.0334 104.672 15.0859 104.732 15.1414C104.794 15.1968 104.838 15.2576 104.865 15.324C104.894 15.3904 104.918 15.4817 104.94 15.5979C104.963 15.7141 104.979 15.8884 104.99 16.1208C105.001 16.3533 105.007 16.6687 105.007 17.0671Z" fill-rule="evenodd" fill="#019102"/>
	<path id="Path 1148" d="M74.8896 36.3135C70.7197 36.3088 68.3652 35.2327 67.5508 34.7737C65.6201 33.6882 64.4971 32.3408 64.208 31.9773C62.8975 30.3206 62.1689 28.2124 62.1152 26.1013C62.0537 23.6514 61.9922 21.2 61.9307 18.75C61.9014 17.6199 61.4551 16.5295 60.6396 15.7444C60.6016 15.7073 60.5664 15.6736 60.5322 15.6426C60.2617 15.3979 60.0215 15.2361 59.9482 15.1885C59.4102 14.8403 58.8711 14.6619 58.3457 14.5186C57.46 14.2737 56.3916 14.1521 55.1426 14.1521C54.4404 14.1521 53.7598 14.209 53.0996 14.3215C52.4385 14.4355 51.8291 14.5801 51.2705 14.7588C50.7109 14.9375 50.2227 15.1313 49.8076 15.3394C49.3896 15.5471 49.0986 15.738 48.9326 15.9106C48.7666 16.083 48.6523 16.2756 48.5938 16.4895C48.5342 16.7036 48.5049 16.9961 48.5049 17.3643C48.5049 17.6384 48.5215 17.8877 48.5586 18.114C48.5938 18.3406 48.6445 18.5298 48.709 18.6853C48.7744 18.8394 48.8584 18.958 48.959 19.041C49.0605 19.1257 49.1758 19.1675 49.3066 19.1675C49.498 19.1675 49.7441 19.0842 50.0479 18.9163C50.3506 18.75 50.7295 18.5669 51.1807 18.3635C51.6338 18.1619 52.1543 17.9771 52.7422 17.8108C53.332 17.6445 54 17.5613 54.75 17.5613C55.3213 17.5613 55.8008 17.6199 56.1865 17.7383C56.5732 17.8584 56.8828 18.0417 57.1143 18.2927C57.3467 18.5422 57.5127 18.8547 57.6143 19.229C57.7139 19.603 57.7666 20.0405 57.7666 20.541L57.7666 21.5049L56.2129 21.5049C54.7979 21.5049 53.5557 21.6111 52.4834 21.8252C51.4131 22.0393 50.5186 22.3704 49.7979 22.8152C49.0791 23.2617 48.5371 23.8269 48.1748 24.5107C47.8115 25.1958 47.6299 26.0012 47.6299 26.9297C47.6299 27.7859 47.7734 28.5359 48.0576 29.178C48.3447 29.8201 48.7451 30.3589 49.2617 30.7932C49.7812 31.2275 50.3926 31.554 51.1006 31.7742C51.8086 31.9944 52.585 32.1035 53.4307 32.1035C54.4531 32.1035 55.3828 31.908 56.2227 31.5154C56.29 31.4846 56.5303 31.3721 56.8379 31.189C57.667 30.6978 58.2363 30.1387 58.5918 29.7354C58.749 30.145 58.9971 30.7317 59.3682 31.4014C61.6055 35.4297 65.4062 37.2144 66.8408 37.7935C67.5137 38.0645 70.748 39.2993 75.0088 38.7402C80.9355 37.9612 85.0957 34.1377 84.8926 33.7527C84.7051 33.394 80.8535 36.3181 74.8896 36.3135ZM57.7656 27.0359C57.2188 27.655 56.6797 28.1248 56.1514 28.4465C55.6221 28.7668 55.041 28.9285 54.4111 28.9285C53.6611 28.9285 53.0762 28.7375 52.6533 28.3572C52.2305 27.9768 52.0195 27.4534 52.0195 26.7866C52.0195 26.3938 52.0938 26.0459 52.2432 25.7424C52.3906 25.4392 52.627 25.1804 52.9482 24.9666C53.2686 24.7524 53.6846 24.5923 54.1973 24.4844C54.709 24.3767 55.3271 24.3242 56.0527 24.3242L57.7656 24.3242L57.7656 27.0359Z" fill-rule="evenodd" fill="#019102"/>
	<path id="Path 1149" d="M84.9424 33.6479C84.7002 33.3938 83.5146 33.6526 82.9805 33.7681C82.8184 33.8035 82.7803 33.6633 82.9189 33.5464C83.8115 32.7825 85.3994 32.8271 85.6045 33.0352C85.8096 33.2444 85.7256 34.8398 84.9004 35.676C84.7744 35.8052 84.6357 35.7561 84.6836 35.5974C84.8379 35.0737 85.1826 33.9021 84.9424 33.6479Z" fill-rule="evenodd" fill="#019102"/>
	<defs/>
</svg>
