<svg width="329.753906" height="132.620850" viewBox="0 0 329.754 132.621" fill="none" xmlns="http://www.w3.org/2000/svg" xmlns:xlink="http://www.w3.org/1999/xlink">
	<desc>
			Created with Pixso.
	</desc>
	<path id="Path 1145" d="M72.2363 44.6938L72.2363 85.4929C72.3174 91.731 70.7197 97.8918 67.5195 103.251C64.4004 108.371 59.9189 112.531 54.5596 115.248C42.8799 121.01 29.2822 121.01 17.6025 115.248C12.2393 112.531 7.76172 108.371 4.71973 103.251C1.51953 97.8918 -0.078125 91.731 0.00292969 85.4929L0.00292969 44.8523C0.00292969 44.2952 0.243164 43.8154 0.560547 43.4128C0.962891 43.0144 1.51953 42.8516 2.00391 42.8516L19.1191 42.8516L19.1191 84.9319C19.1191 90.6899 20.6406 95.0901 23.6826 98.2903C26.8789 101.491 31.4414 103.251 36 103.011C40.6396 103.251 45.1211 101.491 48.4795 98.2903C51.5176 95.0901 53.0381 90.6899 53.0381 84.9319L53.0381 42.8516L70.2393 42.8516C71.3584 42.7744 72.2363 43.6528 72.2363 44.6938Z" fill-rule="evenodd" fill="#FFFFFF"/>
	<path id="Path 1146" d="M69.9189 29.4934C69.9189 33.5762 66.5596 36.9351 62.4775 37.0122C58.3174 37.0122 54.958 33.6533 54.8809 29.4934C54.8809 25.3333 58.3174 21.9744 62.3994 21.9744C66.5596 21.9744 69.9189 25.3333 69.9189 29.4934Z" fill-rule="evenodd" fill="#FFFFFF"/>
	<path id="Path 1147" d="M17.8389 29.4934C17.8389 33.6533 14.4795 37.0122 10.3193 37.0122C6.24121 36.9351 2.88184 33.6533 2.88184 29.4934C2.88184 25.3333 6.24121 22.0557 10.3193 22.0557C14.4795 22.0557 17.8389 25.3333 17.8389 29.4934Z" fill-rule="evenodd" fill="#FFFFFF"/>
	<path id="B  zar" d="M109.84 91L85.1465 91L85.1465 22.6343L109.036 22.6343C123.334 22.6343 130.012 30.7812 130.012 40.7871C130.012 49.5996 124.803 53.478 118.928 55.0845L118.928 55.75C125.192 56.1401 132.674 62.0151 132.674 72.8472C132.674 83.1284 125.996 91 109.84 91ZM93.4082 29.978L93.4082 52.6748L108.783 52.6748C116.242 52.6748 122.117 48.0161 122.117 40.7871C122.117 34.7974 118.124 29.978 109.036 29.978L93.4082 29.978ZM309.849 91L301.977 91L301.977 39.7314L309.596 39.7314L309.596 47.4653L310.124 47.4653C312.006 42.3936 317.33 38.9282 323.48 38.9282C324.65 38.9282 326.716 38.9971 327.611 39.0659L327.611 47.0752C327.083 46.9375 324.903 46.5474 322.814 46.5474C315.333 46.5474 309.849 51.6191 309.849 58.5498L309.849 91ZM279.284 84.0464C277.678 87.397 272.996 92.1934 264.068 92.1934C254.315 92.1934 246.559 86.4561 246.559 76.4502C246.559 64.7002 256.955 62.5889 266.455 61.3496C275.818 60.1562 279.674 60.5005 279.674 56.6909L279.674 56.4155C279.674 49.8521 276.117 45.9966 268.865 45.9966C261.361 45.9966 257.253 50.0127 255.509 53.7534L248.027 51.0684C252.043 41.728 260.855 39.0659 268.59 39.0659C275.153 39.0659 287.568 40.9248 287.568 57.2188L287.568 91L279.674 91L279.674 84.0464L279.284 84.0464ZM236.812 91L196.627 91L196.627 84.9873L225.75 47.603L225.75 47.0752L197.568 47.0752L197.568 39.7314L235.894 39.7314L235.894 45.9966L207.574 83.1284L207.574 83.6562L236.812 83.6562L236.812 91ZM93.4082 59.8809L93.4082 83.6562L109.84 83.6562C120.648 83.6562 124.803 78.8599 124.803 72.8472C124.803 65.8936 119.18 59.8809 110.252 59.8809L93.4082 59.8809ZM254.453 76.8403C254.453 82.3252 258.997 85.125 265.262 85.125C274.603 85.125 279.674 78.8599 279.674 72.4341L279.674 65.228C278.344 66.8345 269.393 67.7754 266.065 68.1655C259.915 68.9688 254.453 70.8276 254.453 76.8403Z" fill="#FFFFFFFF"/>
	<path id="Path 1148" d="M203.743 125.833C192.731 125.821 186.514 122.978 184.362 121.766C179.263 118.899 176.299 115.341 175.534 114.382L175.433 114.26C171.972 109.884 170.149 104.439 170.008 98.8638C169.845 92.3938 169.683 85.9199 169.52 79.4502C169.442 76.4653 168.263 73.5862 166.112 71.5125C166.01 71.4148 165.917 71.3254 165.827 71.2439C165.111 70.5974 164.478 70.1704 164.286 70.0444C162.862 69.1252 161.439 68.6536 160.053 68.2754C157.715 67.6289 154.893 67.3076 151.595 67.3076C149.74 67.3076 147.942 67.458 146.198 67.7549C144.453 68.0559 142.844 68.4382 141.367 68.9099C139.891 69.3816 138.602 69.8938 137.504 70.4429C136.402 70.9919 135.634 71.4961 135.194 71.9517C134.755 72.407 134.454 72.9153 134.3 73.4805C134.141 74.0459 134.063 74.8184 134.063 75.7903C134.063 76.5142 134.108 77.1729 134.206 77.7708C134.3 78.3684 134.434 78.8687 134.604 79.2793C134.775 79.686 134.999 79.9993 135.264 80.2188C135.531 80.4424 135.837 80.5522 136.183 80.5522C136.687 80.5522 137.337 80.3325 138.139 79.8894C138.939 79.4502 139.939 78.9663 141.131 78.4294C142.327 77.8967 143.701 77.4087 145.255 76.9697C146.812 76.5305 148.577 76.3108 150.558 76.3108C152.066 76.3108 153.331 76.4653 154.352 76.7786C155.372 77.0957 156.189 77.5796 156.8 78.2424C157.413 78.9011 157.853 79.7268 158.121 80.7148C158.386 81.7031 158.523 82.8579 158.523 84.1794L158.523 86.7251L154.421 86.7251C150.684 86.7251 147.401 87.0059 144.571 87.571C141.745 88.1362 139.383 89.0105 137.479 90.1858C135.58 91.365 134.149 92.8574 133.193 94.6631C132.233 96.4727 131.754 98.5994 131.754 101.052C131.754 103.312 132.132 105.293 132.885 106.989C133.641 108.684 134.698 110.108 136.064 111.254C137.435 112.401 139.049 113.263 140.92 113.845C142.79 114.426 144.84 114.715 147.072 114.715C149.772 114.715 152.229 114.198 154.445 113.162C154.624 113.08 155.259 112.783 156.071 112.3C158.26 111.002 159.764 109.526 160.703 108.461C161.118 109.542 161.772 111.092 162.753 112.861C168.661 123.499 178.697 128.212 182.487 129.741C184.265 130.456 192.805 133.718 204.057 132.242C219.708 130.184 230.696 120.087 230.159 119.07C229.663 118.123 219.493 125.845 203.743 125.833ZM158.52 101.332C157.076 102.967 155.652 104.207 154.258 105.057C152.859 105.903 151.326 106.33 149.663 106.33C147.683 106.33 146.137 105.826 145.019 104.821C143.904 103.817 143.348 102.434 143.348 100.673C143.348 99.6362 143.543 98.7173 143.938 97.9163C144.327 97.115 144.95 96.4319 145.8 95.8667C146.646 95.3015 147.743 94.8784 149.098 94.5938C150.447 94.3093 152.082 94.1709 153.998 94.1709L158.52 94.1709L158.52 101.332Z" fill-rule="evenodd" fill="#FFFFFF"/>
	<path id="Path 1149" d="M230.289 118.794C229.65 118.123 226.52 118.806 225.108 119.111C224.682 119.205 224.58 118.834 224.946 118.525C227.305 116.509 231.497 116.626 232.038 117.175C232.579 117.729 232.359 121.941 230.18 124.149C229.846 124.491 229.48 124.361 229.606 123.942C230.013 122.559 230.924 119.465 230.289 118.794Z" fill-rule="evenodd" fill="#FFFFFF"/>
	<defs/>
</svg>
