<svg width="323.000000" height="276.506836" viewBox="0 0 323 276.507" fill="none" xmlns="http://www.w3.org/2000/svg" xmlns:xlink="http://www.w3.org/1999/xlink">
	<desc>
			Created with Pixso.
	</desc>
	<g opacity="0.570000">
		<path id="Path 4026" d="M136.526 65.0664L135.021 65.0664L135.021 23.853C135.021 10.6794 124.343 0 111.169 0L23.8535 0C10.6797 0 0 10.6794 0 23.853L0 249.952C0 263.126 10.6797 273.805 23.8525 273.805L111.169 273.805C124.343 273.805 135.022 263.126 135.022 249.952L135.022 94.4026L136.526 94.4026L136.526 65.0664Z" fill-rule="evenodd" fill="#E6E6E6"/>
	</g>
	<g opacity="0.570000">
		<path id="Path 4027" d="M112.131 6.20581L100.733 6.20581C101.798 8.81543 101.493 11.7834 99.9219 14.1226C98.3496 16.4617 95.7168 17.865 92.8984 17.865L42.876 17.865C40.0586 17.865 37.4248 16.4622 35.8535 14.123C34.2803 11.7834 33.9766 8.81543 35.041 6.20581L24.3955 6.20581C14.5576 6.20581 6.58203 14.1812 6.58203 24.019L6.58203 249.786C6.58203 259.624 14.5576 267.599 24.3955 267.599L112.131 267.599C121.969 267.599 129.944 259.624 129.944 249.786L129.944 24.019C129.944 14.1809 121.97 6.20581 112.131 6.20581Z" fill-rule="evenodd" fill="#019102"/>
		<path id="Path 4027" d="M100.733 6.20581C101.798 8.81543 101.493 11.7834 99.9219 14.1226C98.3496 16.4617 95.7168 17.865 92.8984 17.865L42.876 17.865C40.0586 17.865 37.4248 16.4622 35.8535 14.123C34.2803 11.7834 33.9766 8.81543 35.041 6.20581L24.3955 6.20581C14.5576 6.20581 6.58203 14.1812 6.58203 24.019L6.58203 249.786C6.58203 259.624 14.5576 267.599 24.3955 267.599L112.131 267.599C121.969 267.599 129.944 259.624 129.944 249.786L129.944 24.019C129.944 14.1809 121.97 6.20581 112.131 6.20581L100.733 6.20581Z" stroke="#006D01"/>
	</g>
	<g opacity="0.570000">
		<path id="Path 4028" d="M42.4141 52.1021L37.1758 52.1021C36.792 52.1021 36.4814 52.4131 36.4814 52.7966L36.4814 55.0959C36.4814 55.4795 36.792 55.7905 37.1758 55.7905L38.0439 55.7905L38.0439 59.2356L41.5459 59.2356L41.5459 55.7905L42.4141 55.7905C42.7979 55.7905 43.1094 55.4795 43.1094 55.0959L43.1094 52.7966C43.1094 52.4131 42.7979 52.1021 42.4141 52.1021Z" fill-rule="evenodd" fill="#019102"/>
	</g>
	<g opacity="0.570000">
		<path id="Path 4029" d="M47.6611 73.145C44.4531 68.4507 42.8125 62.8611 42.9756 57.1775C42.9814 56.9072 42.7959 56.6699 42.5322 56.6106L42.5322 55.6172L37 55.6172L37 56.5969C36.6865 56.5974 36.3564 56.8518 36.3564 57.1653C36.793 63.241 35.3223 68.731 31.9434 73.5525C31.749 73.8296 31.6494 74.1624 31.6602 74.5005L32.2646 93.2136C32.2949 94.0808 33.0029 94.77 33.8711 94.7771L46.3848 94.7771C47.2627 94.7698 47.9756 94.0642 47.9922 93.186L48.2246 75.0173C48.2314 74.3503 48.0352 73.6973 47.6611 73.145Z" fill-rule="evenodd" fill="#019102"/>
	</g>
	<g opacity="0.570000">
		<path id="Path 4030" d="M45.6807 79.3611L34.7881 79.3611C34.4619 79.3611 34.1523 79.5037 33.9395 79.7512C33.7266 79.999 33.6338 80.3269 33.6826 80.6494L35.3291 91.3481L44.7803 91.3481L46.7793 80.6855C46.8408 80.3584 46.7529 80.0212 46.541 79.7651C46.3281 79.5093 46.0127 79.3611 45.6807 79.3611Z" fill-rule="evenodd" fill="#FFFFFF"/>
	</g>
	<g opacity="0.570000">
		<path id="Path 4031" d="M98.2949 108.159L93.0557 108.159C92.6719 108.159 92.3613 108.47 92.3613 108.853L92.3613 111.152C92.3613 111.536 92.6719 111.847 93.0557 111.847L93.9238 111.847L93.9238 115.292L97.4258 115.292L97.4258 111.847L98.2939 111.847C98.6777 111.847 98.9893 111.536 98.9893 111.152L98.9893 108.853C98.9893 108.47 98.6777 108.159 98.2949 108.159Z" fill-rule="evenodd" fill="#019102"/>
	</g>
	<g opacity="0.570000">
		<path id="Path 4032" d="M103.592 129.202C100.384 124.508 98.7441 118.918 98.9072 113.234C98.9131 112.964 98.7275 112.727 98.4639 112.667L98.4639 111.674L92.9307 111.674L92.9307 112.654C92.6172 112.654 92.2871 112.909 92.2871 113.222C92.7236 119.298 91.2529 124.788 87.874 129.61C87.6797 129.887 87.5801 130.219 87.5908 130.558L88.1953 149.271C88.2256 150.138 88.9336 150.827 89.8018 150.834L102.315 150.834C103.193 150.827 103.906 150.121 103.922 149.243L104.155 131.074C104.162 130.407 103.966 129.754 103.592 129.202Z" fill-rule="evenodd" fill="#019102"/>
	</g>
	<g opacity="0.570000">
		<path id="Path 4033" d="M101.585 135.418L90.6924 135.418C90.3662 135.418 90.0566 135.561 89.8438 135.808C89.6309 136.056 89.5371 136.384 89.5869 136.706L91.2334 147.405L100.685 147.405L102.684 136.742C102.745 136.415 102.658 136.078 102.445 135.822C102.232 135.566 101.918 135.418 101.585 135.418Z" fill-rule="evenodd" fill="#FFFFFF"/>
	</g>
	<g opacity="0.570000">
		<path id="Path 4034" d="M35.0498 187.407L32.5645 187.407C32.3828 187.407 32.2354 187.554 32.2354 187.736L32.2354 188.827C32.2354 189.009 32.3828 189.156 32.5645 189.156L32.9766 189.156L32.9766 190.79L34.6377 190.79L34.6377 189.156L35.0498 189.156C35.2314 189.156 35.3789 189.009 35.3789 188.827L35.3789 187.736C35.3789 187.554 35.2314 187.407 35.0498 187.407Z" fill-rule="evenodd" fill="#019102"/>
	</g>
	<g opacity="0.570000">
		<path id="Path 4035" d="M37.5391 197.388C36.0166 195.162 35.2393 192.51 35.3164 189.814C35.3193 189.686 35.2314 189.574 35.1055 189.545L35.1055 189.074L32.4814 189.074L32.4814 189.539C32.333 189.539 32.1768 189.66 32.1768 189.809C32.4189 192.56 31.6777 195.327 30.083 197.582C29.9902 197.713 29.9434 197.871 29.9482 198.031L30.2354 206.908C30.25 207.319 30.5859 207.646 30.9971 207.649L36.9336 207.649C37.3496 207.646 37.6875 207.312 37.6953 206.895L37.8057 198.277C37.8096 197.96 37.7158 197.65 37.5391 197.388Z" fill-rule="evenodd" fill="#019102"/>
	</g>
	<g opacity="0.570000">
		<rect id="Rectangle 2023" x="31.020508" y="200.651367" width="5.663762" height="2.831873" fill="#FFFFFF"/>
	</g>
	<g opacity="0.570000">
		<path id="Path 4036" d="M46.6172 187.407L44.1318 187.407C43.9502 187.407 43.8027 187.554 43.8027 187.736L43.8027 188.827C43.8027 189.009 43.9502 189.156 44.1318 189.156L44.5439 189.156L44.5439 190.79L46.2051 190.79L46.2051 189.156L46.6172 189.156C46.7988 189.156 46.9463 189.009 46.9463 188.827L46.9463 187.736C46.9463 187.554 46.7988 187.407 46.6172 187.407Z" fill-rule="evenodd" fill="#019102"/>
	</g>
	<g opacity="0.570000">
		<path id="Path 4037" d="M49.1064 197.388C47.584 195.162 46.8066 192.51 46.8838 189.814C46.8867 189.686 46.7988 189.574 46.6729 189.545L46.6729 189.074L44.0488 189.074L44.0488 189.539C43.9004 189.539 43.7441 189.66 43.7441 189.809C43.9863 192.56 43.2451 195.327 41.6504 197.582C41.5576 197.713 41.5107 197.871 41.5156 198.031L41.8027 206.908C41.8174 207.319 42.1533 207.646 42.5645 207.649L48.501 207.649C48.917 207.646 49.2549 207.312 49.2627 206.895L49.373 198.277C49.377 197.96 49.2832 197.65 49.1064 197.388Z" fill-rule="evenodd" fill="#019102"/>
	</g>
	<g opacity="0.570000">
		<rect id="Rectangle 2024" x="42.587891" y="200.651367" width="5.663762" height="2.831873" fill="#FFFFFF"/>
	</g>
	<g opacity="0.570000">
		<path id="Path 4038" d="M58.1836 187.407L55.6982 187.407C55.5166 187.407 55.3691 187.554 55.3691 187.736L55.3691 188.827C55.3691 189.009 55.5166 189.156 55.6982 189.156L56.1104 189.156L56.1104 190.79L57.7715 190.79L57.7715 189.156L58.1836 189.156C58.3652 189.156 58.5127 189.009 58.5127 188.827L58.5127 187.736C58.5127 187.554 58.3652 187.407 58.1836 187.407Z" fill-rule="evenodd" fill="#019102"/>
	</g>
	<g opacity="0.570000">
		<path id="Path 4039" d="M60.6729 197.388C59.1504 195.162 58.373 192.51 58.4502 189.814C58.4531 189.686 58.3652 189.574 58.2402 189.545L58.2402 189.074L55.6152 189.074L55.6152 189.539C55.4668 189.539 55.3105 189.66 55.3105 189.809C55.5527 192.56 54.8115 195.327 53.2168 197.582C53.125 197.713 53.0771 197.871 53.082 198.031L53.3691 206.908C53.3838 207.319 53.7197 207.646 54.1309 207.649L60.0674 207.649C60.4834 207.646 60.8223 207.312 60.8291 206.895L60.9395 198.277C60.9434 197.96 60.8496 197.65 60.6729 197.388Z" fill-rule="evenodd" fill="#019102"/>
	</g>
	<g opacity="0.570000">
		<rect id="Rectangle 2025" x="54.155273" y="200.651367" width="5.663762" height="2.831873" fill="#FFFFFF"/>
	</g>
	<g opacity="0.570000">
		<path id="Path 4040" d="M89.4277 165.721L84.1895 165.721C83.8057 165.721 83.4951 166.032 83.4951 166.415L83.4951 168.715C83.4951 169.098 83.8057 169.409 84.1895 169.409L85.0576 169.409L85.0576 172.854L88.5596 172.854L88.5596 169.409L89.4277 169.409C89.8115 169.409 90.123 169.098 90.123 168.715L90.123 166.415C90.123 166.032 89.8115 165.721 89.4277 165.721Z" fill-rule="evenodd" fill="#019102"/>
	</g>
	<g opacity="0.570000">
		<path id="Path 4041" d="M94.7324 186.764C91.5244 182.069 89.8838 176.48 90.0469 170.796C90.0527 170.526 89.8672 170.289 89.6035 170.229L89.6035 169.236L84.0713 169.236L84.0713 170.216C83.7578 170.216 83.4277 170.471 83.4287 170.784C83.8643 176.86 82.3936 182.35 79.0146 187.171C78.8203 187.448 78.7207 187.781 78.7314 188.12L79.3359 206.833C79.3662 207.7 80.0742 208.389 80.9424 208.396L93.4561 208.396C94.334 208.389 95.0469 207.683 95.0635 206.805L95.2959 188.636C95.3027 187.969 95.1064 187.316 94.7324 186.764Z" fill-rule="evenodd" fill="#019102"/>
	</g>
	<g opacity="0.570000">
		<path id="Path 4042" d="M92.7227 192.979L81.8301 192.979C81.5039 192.979 81.1943 193.122 80.9814 193.37C80.7686 193.617 80.6758 193.945 80.7246 194.268L82.3711 204.967L91.8223 204.967L93.8213 194.304C93.8828 193.977 93.7949 193.64 93.583 193.384C93.3701 193.128 93.0547 192.979 92.7227 192.979Z" fill-rule="evenodd" fill="#FFFFFF"/>
	</g>
	<g opacity="0.570000">
		<path id="Path 4043" d="M92.7305 97.186L61.5039 97.186C63.6875 85.3828 63.1846 71.1299 61.5039 55.802L92.7305 55.802C91.0938 71.1301 90.6055 85.3828 92.7305 97.186Z" fill-rule="evenodd" fill="#019102"/>
	</g>
	<g opacity="0.570000">
		<circle id="Ellipse 85" cx="77.176758" cy="75.365479" r="7.524406" fill="#FFFFFF"/>
	</g>
	<g opacity="0.570000">
		<path id="Path 4044" d="M65.8955 152.115L34.6689 152.115C36.8525 140.311 36.3496 126.058 34.6689 110.73L65.8955 110.73C64.2588 126.058 63.7705 140.311 65.8955 152.115Z" fill-rule="evenodd" fill="#019102"/>
	</g>
	<g opacity="0.570000">
		<circle id="Ellipse 86" cx="50.469727" cy="130.293945" r="7.524406" fill="#FFFFFF"/>
	</g>
	<g opacity="0.570000">
		<path id="Path 4045" d="M109.922 99.8198L78.6953 99.8198C80.8789 88.0164 80.376 73.7634 78.6953 58.4355L109.922 58.4355C108.285 73.7637 107.797 88.0166 109.922 99.8198Z" fill-rule="evenodd" fill="#E6E6E6"/>
	</g>
	<g opacity="0.570000">
		<circle id="Ellipse 87" cx="94.393555" cy="77.999023" r="7.524406" fill="#FFFFFF"/>
	</g>
	<g opacity="0.570000">
		<path id="Path 4046" d="M109.922 97.9387L78.6953 97.9387C80.8789 86.1355 80.376 71.8826 78.6953 56.5547L109.922 56.5547C108.285 71.8823 107.797 86.1355 109.922 97.9387Z" fill-rule="evenodd" fill="#E6E6E6"/>
	</g>
	<g opacity="0.570000">
		<circle id="Ellipse 88" cx="94.393555" cy="76.117676" r="7.524406" fill="#FFFFFF"/>
	</g>
	<g opacity="0.570000">
		<path id="Path 4047" d="M109.922 99.8198L78.6953 99.8198C80.8789 88.0164 80.376 73.7634 78.6953 58.4355L109.922 58.4355C108.285 73.7637 107.797 88.0166 109.922 99.8198Z" fill-rule="evenodd" fill="#019102"/>
	</g>
	<g opacity="0.570000">
		<circle id="Ellipse 89" cx="94.393555" cy="77.999023" r="7.524406" fill="#FFFFFF"/>
	</g>
	<g opacity="0.570000">
		<rect id="Rectangle 2026" x="16.986328" y="94.928955" width="102.332108" height="11.286629" fill="#019102"/>
	</g>
	<g opacity="0.570000">
		<rect id="Rectangle 2027" x="16.986328" y="150.985596" width="102.332108" height="11.286629" fill="#019102"/>
	</g>
	<g opacity="0.570000">
		<rect id="Rectangle 2028" x="16.986328" y="207.042725" width="102.332108" height="11.286629" fill="#019102"/>
	</g>
	<path id="Path 4048" d="M288.992 252.832L263.498 234.8C272.097 226.424 279.917 214.498 287.396 201.013L312.89 219.045C302.702 230.614 294.072 241.968 288.992 252.832Z" fill-rule="evenodd" fill="#019102"/>
	<circle id="Ellipse 90" cx="288.998047" cy="226.109619" r="7.524406" fill="#FFFFFF"/>
	<path id="Path 4049" d="M169.995 170.549L167.196 170.549C166.991 170.549 166.825 170.715 166.825 170.92L166.825 172.149C166.825 172.354 166.991 172.52 167.196 172.52L167.66 172.52L167.66 174.36L169.531 174.36L169.531 172.52L169.995 172.52C170.199 172.52 170.365 172.354 170.365 172.149L170.365 170.92C170.365 170.715 170.199 170.549 169.995 170.549Z" fill-rule="evenodd" fill="#E6E6E6"/>
	<path id="Path 4050" d="M172.793 181.791C171.079 179.283 170.203 176.297 170.29 173.261C170.293 173.116 170.194 172.99 170.053 172.958L170.053 172.427L167.098 172.427L167.098 172.951C166.93 172.951 166.754 173.087 166.754 173.254C167.026 176.353 166.191 179.469 164.396 182.009C164.292 182.157 164.239 182.334 164.244 182.515L164.568 192.512C164.584 192.975 164.962 193.343 165.426 193.347L172.111 193.347C172.58 193.343 172.961 192.966 172.97 192.497L173.094 182.791C173.098 182.435 172.992 182.086 172.793 181.791Z" fill-rule="evenodd" fill="#019102"/>
	<g opacity="0.200000">
		<path id="Path 4051" d="M169.412 170.95C169.412 171.392 169.054 171.75 168.612 171.75C168.17 171.75 167.812 171.392 167.812 170.95L169.412 170.95Z" fill-rule="evenodd" fill="#000000"/>
	</g>
	<rect id="Rectangle 2029" x="165.849609" y="183.716797" width="5.643314" height="3.762222" fill="#FFFFFF"/>
	<path id="Path 4052" d="M256.309 209.602L251.07 209.602C250.688 209.602 250.376 209.913 250.376 210.297L250.376 212.596C250.376 212.979 250.688 213.291 251.07 213.291L251.938 213.291L251.938 216.736L255.44 216.736L255.44 213.291L256.309 213.291C256.692 213.291 257.004 212.979 257.004 212.596L257.004 210.297C257.004 209.913 256.692 209.602 256.309 209.602Z" fill-rule="evenodd" fill="#E6E6E6"/>
	<path id="Path 4053" d="M261.475 230.646C258.267 225.951 256.626 220.362 256.789 214.678C256.795 214.408 256.61 214.171 256.346 214.111L256.346 213.118L250.813 213.118L250.813 214.098C250.5 214.098 250.17 214.353 250.17 214.666C250.606 220.742 249.136 226.232 245.757 231.053C245.562 231.33 245.463 231.663 245.474 232.001L246.078 250.714C246.108 251.582 246.816 252.271 247.685 252.278L260.198 252.278C261.076 252.271 261.789 251.565 261.805 250.687L262.038 232.518C262.045 231.851 261.849 231.198 261.475 230.646Z" fill-rule="evenodd" fill="#019102"/>
	<g opacity="0.200000">
		<path id="Path 4054" d="M255.243 210.352C255.243 211.179 254.572 211.85 253.744 211.85C252.917 211.85 252.246 211.179 252.246 210.352L255.243 210.352Z" fill-rule="evenodd" fill="#000000"/>
	</g>
	<path id="Path 4055" d="M259.514 236.861L248.621 236.861C248.295 236.861 247.984 237.004 247.772 237.251C247.56 237.499 247.467 237.827 247.516 238.149L249.162 248.849L258.613 248.849L260.612 238.186C260.674 237.859 260.586 237.521 260.374 237.265C260.161 237.01 259.846 236.861 259.514 236.861Z" fill-rule="evenodd" fill="#FFFFFF"/>
	<path id="Path 4056" d="M241.939 252.803L210.713 252.803C212.896 240.999 212.394 226.746 210.713 211.418L241.939 211.418C240.303 226.746 239.814 240.999 241.939 252.803Z" fill-rule="evenodd" fill="#019102"/>
	<circle id="Ellipse 91" cx="226.604492" cy="230.981445" r="7.524406" fill="#FFFFFF"/>
	<path id="Path 4057" d="M117.104 122.56L124.113 121.923L128.574 111.09L120.608 106.628L117.104 122.56Z" fill-rule="evenodd" fill="#FFB8B8"/>
	<path id="Path 4058" d="M180.109 152.302C180.583 151.122 180.46 149.788 179.779 148.715C179.1 147.642 177.944 146.961 176.676 146.885L165.792 146.236L164.189 151.565L175.395 154.642C177.332 155.175 179.361 154.167 180.109 152.302Z" fill-rule="evenodd" fill="#FFB8B8"/>
	<path id="Path 4059" d="M169.305 154.732L169.185 144.732L145.009 140.875L126.384 119.514C124.38 117.216 120.985 116.751 118.438 118.427C116.928 119.421 115.937 121.033 115.731 122.829C115.526 124.624 116.129 126.418 117.376 127.727L132.741 146.636L169.305 154.732Z" fill-rule="evenodd" fill="#6CCC6D"/>
	<path id="Path 4060" d="M111.367 267.223L117.74 267.223L133.547 195.756L149.922 217.833L159.481 265.629L165.536 265.629L164.261 214.329L142.912 159.523L121.882 159.523C116.135 169.923 111.627 180.645 116.783 191.705L111.367 267.223Z" fill-rule="evenodd" fill="#2F2E41"/>
	<path id="Path 4061" d="M154.772 271.563C154.63 272.02 154.69 272.515 154.938 272.923C155.187 273.332 155.599 273.614 156.068 273.697L171.663 276.465C172.938 276.698 174.188 275.943 174.574 274.706C174.949 273.527 174.423 272.248 173.327 271.674C169.897 269.914 166.947 267.348 164.727 264.197C163.013 265.793 161.098 265.643 159.063 264.467L156.905 264.737L154.772 271.563Z" fill-rule="evenodd" fill="#2F2E41"/>
	<path id="Path 4062" d="M108.877 271.563C108.734 272.02 108.795 272.515 109.043 272.923C109.291 273.332 109.703 273.614 110.174 273.697L125.768 276.465C127.043 276.698 128.292 275.943 128.679 274.706C129.054 273.527 128.527 272.248 127.432 271.674C124.002 269.914 121.052 267.348 118.831 264.197C117.117 265.793 115.202 265.643 113.168 264.467L111.01 264.737L108.877 271.563Z" fill-rule="evenodd" fill="#2F2E41"/>
	<circle id="Ellipse 92" cx="128.598633" cy="106.150391" r="8.921885" fill="#FFB8B8"/>
	<path id="Path 4063" d="M120.668 161.912L143.929 161.275L137.098 139.775C141.343 132.97 137.07 126.171 131.023 119.374L126.244 116.188L118.597 115.55C115.285 119.093 113.474 123.78 113.541 128.628C113.692 139.011 115.531 150.314 120.668 161.912Z" fill-rule="evenodd" fill="#6CCC6D"/>
	<path id="Path 4064" d="M173.042 176.384C173.94 175.486 174.353 174.21 174.149 172.956C173.946 171.702 173.152 170.622 172.016 170.054L162.265 165.175L158.695 169.444L167.786 176.681C169.358 177.933 171.62 177.805 173.042 176.384Z" fill-rule="evenodd" fill="#FFB8B8"/>
	<path id="Path 4065" d="M161.961 174.021L165.784 164.78L145.075 151.723L136.354 124.758C135.416 121.856 132.479 120.094 129.478 120.633C127.698 120.952 126.152 122.045 125.258 123.615C124.363 125.185 124.211 127.071 124.843 128.765L131.53 152.194L161.961 174.021Z" fill-rule="evenodd" fill="#6CCC6D"/>
	<path id="Path 4066" d="M114.032 102.646C114.032 106.117 116.287 111.493 119.131 113.798C121.044 115.348 123.572 115.283 124.547 113.161C125.548 110.983 128.995 105.865 135.062 102.646C143.151 98.3535 132.194 91.0107 124.547 92.1304C118.801 92.9717 114.032 96.8381 114.032 102.646Z" fill-rule="evenodd" fill="#2F2E41"/>
	<circle id="Ellipse 93" cx="119.585938" cy="91.493164" r="6.372781" fill="#2F2E41"/>
	<path id="Path 4067" d="M126.769 89.2627C126.768 85.9302 124.197 83.1621 120.874 82.9141C121.032 82.9023 121.19 82.8899 121.352 82.8899C124.871 82.8899 127.725 85.7432 127.725 89.2627C127.725 92.7822 124.871 95.6355 121.352 95.6355C121.19 95.6355 121.032 95.623 120.874 95.6113C124.197 95.3633 126.768 92.5952 126.769 89.2627Z" fill-rule="evenodd" fill="#2F2E41"/>
	<ellipse id="Ellipse 94" cx="128.712891" cy="107.425049" rx="1.433875" ry="1.911834" fill="#FFB8B8"/>
	<path id="Path 4068" d="M304.251 255.536L205.047 255.536L184.039 156.227L166.11 156.227L166.11 151.771L187.65 151.771L208.658 251.079L304.251 251.079L304.251 255.536Z" fill-rule="evenodd" fill="#3F3D56"/>
	<circle id="Ellipse 95" cx="222.090820" cy="264.129395" r="9.548893" fill="#65617D"/>
	<circle id="Ellipse 96" cx="290.882812" cy="264.129395" r="9.548893" fill="#65617D"/>
	<path id="Path 4069" d="M302.442 253.437L205.922 253.437L188.892 169.277L318.424 169.277C319.761 169.277 321.031 169.863 321.901 170.879C322.771 171.896 323.152 173.242 322.944 174.563L306.962 249.572C306.621 251.802 304.698 253.447 302.442 253.437ZM206.97 252.164L302.442 252.164C304.07 252.171 305.459 250.984 305.704 249.374L321.687 174.366C321.836 173.412 321.562 172.44 320.934 171.707C320.307 170.973 319.39 170.551 318.424 170.551L190.438 170.551L206.97 252.164Z" fill-rule="evenodd" fill="#3F3D56"/>
	<path id="Path 4070" d="M227.223 253.168L216.07 170.018L217.326 169.81L228.479 252.96L227.223 253.168Z" fill-rule="evenodd" fill="#3F3D56"/>
	<path id="Path 4071" d="M286.699 252.53L285.442 252.326L296.27 169.812L297.526 170.016L286.699 252.53Z" fill-rule="evenodd" fill="#3F3D56"/>
	<rect id="Rectangle 2030" x="257.542969" y="169.913818" width="1.273183" height="83.150284" fill="#3F3D56"/>
	<rect id="Rectangle 2031" x="195.392578" y="193.466309" width="1.273187" height="123.242989" transform="rotate(-89.8613 195.392578 193.466309)" fill="#3F3D56"/>
	<rect id="Rectangle 2032" x="201.671875" y="232.264404" width="108.273819" height="1.273213" transform="rotate(-0.391905 201.671875 232.264404)" fill="#3F3D56"/>
	<ellipse id="Ellipse 97" cx="171.909180" cy="153.362549" rx="7.002511" ry="3.819572" fill="#3F3D56"/>
	<defs/>
</svg>
