<svg width="323.000000" height="142.147217" viewBox="0 0 323 142.147" fill="none" xmlns="http://www.w3.org/2000/svg" xmlns:xlink="http://www.w3.org/1999/xlink">
	<desc>
			Created with Pixso.
	</desc>
	<path id="Path 3994" d="M96.0928 117.039C94.9824 125.74 90.8994 133.7 86.543 141.367C86.3994 141.628 86.251 141.886 86.0996 142.147L40.8252 142.147C39.9092 141.909 39.0049 141.648 38.1055 141.367C32.9912 139.811 28.1641 137.436 23.8096 134.335C7.15332 122.334 0.744141 99.658 3.63867 79.3391C5.43848 66.7151 10.9795 53.8264 21.7676 47.0273C27.4648 43.4312 34.7812 42.2622 41.3389 43.5986C41.5107 43.6299 41.6816 43.6687 41.8574 43.7039C47.499 44.9739 52.5254 48.1299 55.3848 53.2146C60.5283 62.3513 57.4658 73.6699 54.9375 83.8391C52.416 94.0085 51.0488 106.18 58.3652 113.681C55.9502 106.57 58.334 98.0879 64.1045 93.2798C68.4648 89.6523 74.5352 88.2927 80.0713 89.4187C80.6016 89.5317 81.124 89.6602 81.6377 89.8162C82.8809 90.1799 84.0791 90.6819 85.2109 91.3123C93.8408 96.1323 97.3359 107.233 96.0928 117.039Z" fill-rule="evenodd" fill="#019102"/>
	<path id="Path 3995" d="M69.248 141.367C70.502 141.66 71.7607 141.917 73.0273 142.147L66.1816 142.147C65.2852 141.905 64.3926 141.648 63.5088 141.367C61.5645 140.76 59.6504 140.062 57.7656 139.275C50.207 136.104 43.2441 131.342 37.9766 125.007C35.4004 121.938 33.2959 118.501 31.7344 114.811C30.041 110.639 28.9648 106.244 28.54 101.762C27.585 92.5667 28.5596 83.1184 30.3789 74.0869C32.2568 64.7261 35.2871 55.6343 39.4023 47.0195C39.8975 45.9871 40.4092 44.9609 40.9375 43.9414C41.0117 43.7715 41.1592 43.6448 41.3389 43.5986C41.5186 43.5637 41.7051 43.6016 41.8574 43.7039C42.2363 43.9211 42.3779 44.3975 42.1807 44.7871C37.9375 53.061 34.7217 61.8223 32.6035 70.8762C30.5303 79.7092 29.3545 88.9512 29.7549 98.0332C30.1367 106.519 32.3545 114.865 37.3848 121.804C41.9775 128.14 48.3213 133.135 55.3379 136.536C59.7793 138.661 64.4453 140.282 69.248 141.367Z" fill-rule="evenodd" fill="#FFFFFF"/>
	<path id="Path 3996" d="M84.2715 142.146L82.2539 142.146C82.0273 141.89 81.8096 141.628 81.5947 141.367C76.998 135.782 73.8838 129.127 72.54 122.019C70.9082 113.147 72.1777 103.987 76.1602 95.894C77.2705 93.6248 78.5801 91.4578 80.0713 89.4185C80.6016 89.5315 81.124 89.6602 81.6377 89.8159C77.7139 95.0151 75.0742 101.068 73.9346 107.482C71.877 119.652 75.418 132.102 83.5742 141.367C83.8008 141.628 84.0342 141.89 84.2715 142.146Z" fill-rule="evenodd" fill="#FFFFFF"/>
	<path id="Path 3997" d="M266.087 135.521C266.38 137.817 267.458 139.917 268.607 141.941C268.646 142.01 268.685 142.078 268.725 142.147L280.673 142.147C280.915 142.084 281.153 142.015 281.391 141.941C282.74 141.53 284.015 140.904 285.164 140.085C289.56 136.918 291.251 130.934 290.487 125.571C290.012 122.239 288.55 118.837 285.702 117.043C284.156 116.102 282.312 115.778 280.537 116.138C280.492 116.146 280.447 116.157 280.4 116.166C278.907 116.455 277.607 117.368 276.83 118.676C275.474 121.087 276.281 124.075 276.948 126.759C277.614 129.442 277.975 132.655 276.044 134.634C276.62 132.949 276.241 131.083 275.054 129.756C273.866 128.428 272.054 127.845 270.315 128.231C270.176 128.261 270.037 128.295 269.901 128.336C269.574 128.432 269.258 128.564 268.959 128.731C266.682 130.003 265.759 132.932 266.087 135.521Z" fill-rule="evenodd" fill="#019102"/>
	<path id="Path 3998" d="M273.172 141.941C272.841 142.018 272.509 142.086 272.175 142.147L273.981 142.147C274.218 142.083 274.453 142.015 274.687 141.941C275.2 141.781 275.705 141.597 276.202 141.389C278.22 140.57 280.011 139.279 281.426 137.624C282.105 136.813 282.66 135.906 283.072 134.932C283.52 133.832 283.804 132.672 283.916 131.489C284.121 129.043 283.957 126.581 283.431 124.185C282.935 121.714 282.135 119.315 281.049 117.041C280.918 116.769 280.783 116.498 280.644 116.229C280.624 116.184 280.586 116.15 280.538 116.138C280.49 116.129 280.441 116.139 280.401 116.166C280.301 116.224 280.264 116.349 280.316 116.452C281.436 118.636 282.284 120.948 282.844 123.337C283.419 125.681 283.672 128.093 283.595 130.505C283.554 132.748 282.854 134.93 281.582 136.778C280.345 138.443 278.718 139.778 276.844 140.666C275.671 141.227 274.439 141.655 273.172 141.941Z" fill-rule="evenodd" fill="#FFFFFF"/>
	<path id="Path 3999" d="M269.207 142.147L269.74 142.147C269.8 142.079 269.857 142.01 269.914 141.941C271.127 140.467 271.949 138.711 272.304 136.835C272.734 134.494 272.398 132.076 271.348 129.94C271.055 129.341 270.709 128.769 270.315 128.231C270.176 128.261 270.038 128.295 269.902 128.336C270.938 129.708 271.635 131.305 271.936 132.998C272.479 136.21 271.544 139.496 269.392 141.941C269.331 142.01 269.27 142.079 269.207 142.147Z" fill-rule="evenodd" fill="#FFFFFF"/>
	<path id="Path 4000" d="M158.387 82.7988L120.99 82.7988L120.594 71.3005C120.56 70.292 120.968 69.3186 121.712 68.6367C122.456 67.9548 123.461 67.6331 124.463 67.7556L146.226 70.4204C152.942 70.4385 158.383 75.8867 158.387 82.604L158.387 82.7988Z" fill-rule="evenodd" fill="#019102"/>
	<g filter="url(#filter_1_334_dd)">
		<path id="Path 4001" d="M141.719 42.0127L115.637 42.0127C114.178 42.0122 112.995 43.1953 112.995 44.6538L112.995 70.7363C112.995 72.1953 114.178 73.3779 115.637 73.3777L141.719 73.3777C143.178 73.3779 144.36 72.1953 144.36 70.7363L144.36 44.6541C144.36 43.1951 143.178 42.0122 141.719 42.0127Z" fill-rule="evenodd" fill="#FFFFFF"/>
	</g>
	<path id="Path 4002" d="M135.845 61.5164L123.53 63.9143C122.01 64.2087 120.537 63.2166 120.239 61.6963L119.293 56.8354C118.998 55.3142 119.991 53.842 121.511 53.5442L133.826 51.1462C135.347 50.8518 136.819 51.844 137.117 53.3643L138.063 58.2253C138.357 59.7463 137.365 61.2185 135.845 61.5164Z" fill-rule="evenodd" fill="#019102"/>
	<path id="Path 4003" d="M133.381 55.7734L123.983 57.6035C123.625 57.6733 123.278 57.4395 123.209 57.0815C123.139 56.7236 123.373 56.377 123.73 56.3074L133.129 54.4771C133.486 54.4075 133.833 54.6411 133.903 54.999C133.973 55.3569 133.739 55.7039 133.381 55.7734Z" fill-rule="evenodd" fill="#FFFFFF"/>
	<path id="Path 4004" d="M131.555 58.4839L126.694 59.4304C126.336 59.5002 125.989 59.2664 125.92 58.9084C125.85 58.5505 126.084 58.2039 126.441 58.1343L131.303 57.1875C131.66 57.1179 132.007 57.3516 132.077 57.7095C132.146 58.0674 131.913 58.4141 131.555 58.4839Z" fill-rule="evenodd" fill="#FFFFFF"/>
	<path id="Path 4005" d="M144.36 44.6541L144.36 48.1206L112.995 48.1206L112.995 44.6541C112.995 43.1951 114.178 42.0122 115.637 42.0127L141.719 42.0127C143.178 42.0122 144.36 43.1951 144.36 44.6541Z" fill-rule="evenodd" fill="#019102"/>
	<path id="Path 4006" d="M206.993 49.2065C206.626 48.0234 205.754 47.0632 204.611 46.5845C203.47 46.106 202.174 46.158 201.073 46.7266L165.189 33.8523L163.609 42.8167L199.378 52.6528C200.48 54.4783 202.773 55.1909 204.716 54.3118C206.659 53.4326 207.637 51.2393 206.993 49.2065Z" fill-rule="evenodd" fill="#FFB8B8"/>
	<g opacity="0.200000">
		<path id="Path 4007" d="M206.993 49.2065C206.626 48.0234 205.754 47.0632 204.611 46.5845C203.47 46.106 202.174 46.158 201.073 46.7266L165.189 33.8523L163.609 42.8167L199.378 52.6528C200.48 54.4783 202.773 55.1909 204.716 54.3118C206.659 53.4326 207.637 51.2393 206.993 49.2065Z" fill-rule="evenodd" fill="#000000"/>
	</g>
	<path id="Path 4008" d="M171.559 35.4856L168.17 44.3381C167.976 44.8479 167.567 45.2473 167.055 45.4324C166.541 45.6177 165.973 45.5703 165.497 45.3027L157.262 40.6677C154.576 39.6306 153.24 36.6133 154.277 33.928C155.314 31.2424 158.332 29.9062 161.017 30.9431L170.213 32.9827C170.746 33.1011 171.2 33.4453 171.459 33.926C171.718 34.4067 171.754 34.9761 171.559 35.4856Z" fill-rule="evenodd" fill="#019102"/>
	<path id="Path 4009" d="M209.817 57.4031L196.96 63.2473L198.648 69.6025C201.908 81.875 202.773 94.6604 201.196 107.26L210.597 109.223L218.39 89.3525L215.662 66.7539L209.817 57.4031Z" fill-rule="evenodd" fill="#019102"/>
	<path id="Path 4010" d="M235.045 86.8198C226.598 86.8198 219.713 92.9612 219.379 100.652L250.712 100.652C250.378 92.9612 243.493 86.8198 235.045 86.8198Z" fill-rule="evenodd" fill="#3F3D56"/>
	<path id="Path 4011" d="M228.47 88.145C228.029 53.4302 208.259 56.6238 208.259 56.6238C208.259 56.6238 208.629 67.4294 208.807 67.7654C221.405 91.6025 200.612 119.548 174.146 114.407C173.646 114.31 173.167 114.212 172.707 114.112C165.747 112.659 161.113 106.047 162.123 99.009C164.73 78.0725 151.763 78.4429 151.763 78.4429L132.801 78.4429L122.954 69.5803C122.248 68.9453 121.273 68.7014 120.352 68.9294C119.43 69.1572 118.682 69.8276 118.354 70.7185L117.086 74.157C117.086 74.157 98.3848 76.105 99.9434 94.4175L105.725 94.4175C105.711 94.9377 105.731 95.4585 105.787 95.9761L148.938 95.6252C151.468 95.6047 153.701 97.6543 153.711 100.184C153.717 101.428 153.215 102.621 152.322 103.488C151.43 104.355 150.223 104.821 148.979 104.78L142.022 104.548C139.88 114.094 145.14 120.522 150.936 124.565C156.392 128.316 162.867 130.304 169.488 130.263L188.388 130.263C212.935 130.263 217.221 109.613 217.221 109.613C230.078 104.158 228.47 88.145 228.47 88.145Z" fill-rule="evenodd" fill="#65617D"/>
	<circle id="Ellipse 78" cx="233.876953" cy="119.645996" r="21.916464" fill="#65617D"/>
	<circle id="Ellipse 79" cx="233.876953" cy="119.645752" r="5.371696" fill="#FFFFFF"/>
	<circle id="Ellipse 80" cx="123.223633" cy="116.333984" r="25.228285" fill="#3F3D56"/>
	<circle id="Ellipse 81" cx="123.223633" cy="116.333984" r="6.183404" fill="#FFFFFF"/>
	<path id="Path 4012" d="M196.996 64.9746L192.369 52.4092C191.355 49.655 192.767 46.6003 195.521 45.5864L208.783 40.7041C213.629 38.9194 219.004 41.4014 220.789 46.2471C221.171 47.2815 221.366 48.3755 221.365 49.4783C221.355 52.3137 220.069 54.9941 217.863 56.7759C217.077 57.407 216.192 57.9058 215.245 58.2522L196.996 64.9746Z" fill-rule="evenodd" fill="#3F3D56"/>
	<path id="Path 4013" d="M221.171 49.478C221.169 52.2561 219.908 54.8838 217.742 56.6238C214.422 55.748 211.654 53.4556 210.176 50.3564C208.698 47.2568 208.658 43.6638 210.066 40.5322C212.773 39.9436 215.602 40.6116 217.759 42.3496C219.915 44.0874 221.17 46.708 221.171 49.478Z" fill-rule="evenodd" fill="#019102"/>
	<ellipse id="Ellipse 82" cx="103.254883" cy="90.326416" rx="5.454764" ry="6.623642" fill="#019102"/>
	<path id="Path 4014" d="M175.359 113.773L180.136 113.773L182.408 101.384L175.358 101.384L175.359 113.773Z" fill-rule="evenodd" fill="#FFB8B8"/>
	<path id="Path 4015" d="M174.141 112.213L183.548 112.213C186.858 112.213 189.543 114.897 189.543 118.208L189.543 118.403L174.141 118.403L174.141 112.213Z" fill-rule="evenodd" fill="#2F2E41"/>
	<path id="Path 4016" d="M180.903 108.688C180.848 108.688 180.792 108.685 180.735 108.68L174.125 108.199C173.583 108.148 173.096 107.85 172.805 107.389C172.515 106.929 172.454 106.36 172.641 105.85L181.488 85.9729C181.616 85.6147 181.588 85.2192 181.411 84.8823C181.235 84.5415 180.922 84.292 180.55 84.1968C176.39 83.1094 165.716 80.2139 156.477 76.8259C152.518 75.3743 150.024 73.2766 149.066 70.5911C147.803 67.0505 149.672 63.8218 149.752 63.6863L149.814 63.5801L158.509 64.3704L167.935 65.1721L188.59 76.2483C192.18 78.1892 193.675 82.562 192.026 86.2944L182.504 107.649C182.222 108.281 181.595 108.688 180.903 108.688Z" fill-rule="evenodd" fill="#2F2E41"/>
	<circle id="Ellipse 83" cx="160.021484" cy="15.475830" r="9.569606" fill="#FFB8B8"/>
	<path id="Path 4017" d="M172.632 114.942L177.408 114.942L179.682 102.553L172.631 102.553L172.632 114.942Z" fill-rule="evenodd" fill="#FFB8B8"/>
	<path id="Path 4018" d="M171.414 113.382L180.821 113.382C184.132 113.382 186.816 116.066 186.816 119.377L186.816 119.572L171.414 119.572L171.414 113.382Z" fill-rule="evenodd" fill="#2F2E41"/>
	<path id="Path 4019" d="M178.177 109.857C178.121 109.857 178.065 109.854 178.01 109.849L171.398 109.367C170.856 109.317 170.369 109.018 170.078 108.558C169.787 108.098 169.727 107.529 169.914 107.018L178.762 87.1416C178.889 86.7834 178.861 86.3882 178.685 86.0513C178.509 85.71 178.195 85.4604 177.823 85.3655C173.663 84.2781 162.989 81.3826 153.75 77.9946C149.791 76.543 147.298 74.4453 146.34 71.7598C145.076 68.2192 146.945 64.9905 147.025 64.855L147.088 64.7488L155.782 65.5391L165.208 66.3408L185.863 77.417C189.453 79.3579 190.948 83.7307 189.3 87.4631L179.777 108.818C179.495 109.449 178.868 109.857 178.177 109.857Z" fill-rule="evenodd" fill="#2F2E41"/>
	<path id="Path 4020" d="M162.974 30.4722L152.843 26.9653C152.843 26.9653 146.483 31.8513 149.538 43.9722C151.134 50.2268 150.669 56.8291 148.214 62.7988C147.918 63.5376 147.577 64.2571 147.193 64.9541C147.193 64.9541 158.492 78.5908 169.013 68.4607L164.921 48.7847C164.921 48.7847 171.35 35.7319 162.974 30.4722Z" fill-rule="evenodd" fill="#019102"/>
	<path id="Path 4021" d="M161.21 25.3711C159.848 23.3325 158.773 20.5056 160.272 18.5659C161.753 16.6514 164.673 16.9333 166.939 16.0862C170.097 14.906 171.929 11.1968 171.357 7.87451C170.786 4.55249 168.119 1.79858 164.942 0.671631C161.766 -0.455078 158.183 -0.088623 155.072 1.20898C151.242 2.80615 147.957 5.89624 146.579 9.81055C145.201 13.7246 145.938 18.4243 148.796 21.4329C151.859 24.6582 156.762 25.4233 161.21 25.3711Z" fill-rule="evenodd" fill="#2F2E41"/>
	<path id="Path 4022" d="M152.309 7.98096C150.592 9.37817 147.974 8.75757 146.131 7.53149C144.289 6.30518 142.794 4.55933 140.801 3.5979C137.286 1.90308 133.038 3.02979 129.618 4.90698C126.198 6.78442 123.166 9.37793 119.554 10.8511C115.94 12.3245 111.331 12.3975 108.595 9.61548C107.216 13.6116 108.491 18.0432 111.783 20.6948C115.076 23.3464 119.678 23.6482 123.288 21.449C127.246 19.0378 129.433 13.9824 133.872 12.6516C136.329 11.915 138.968 12.5083 141.45 13.1506C143.934 13.7932 146.522 14.4873 149.028 13.9404C151.534 13.3936 153.878 11.1416 153.56 8.59668L152.309 7.98096Z" fill-rule="evenodd" fill="#2F2E41"/>
	<path id="Path 4023" d="M206.517 48.8169C206.007 47.6877 205.023 46.8425 203.831 46.5085C202.638 46.1746 201.358 46.3862 200.337 47.0862L163.139 38.7375L162.677 47.8284L199.386 53.176C200.705 54.8516 203.068 55.2759 204.888 54.1636C206.707 53.0515 207.407 50.7544 206.517 48.8169Z" fill-rule="evenodd" fill="#FFB8B8"/>
	<path id="Path 4024" d="M169.66 39.5725L167.391 48.7754C167.26 49.3052 166.904 49.752 166.418 49.999C165.932 50.2463 165.361 50.2693 164.856 50.0625L156.112 46.479C153.319 45.7812 151.621 42.9517 152.318 40.1589C153.017 37.366 155.846 35.6677 158.639 36.3655L168.017 37.2546C168.56 37.3064 169.054 37.592 169.369 38.0371C169.685 38.4822 169.791 39.0427 169.66 39.5725Z" fill-rule="evenodd" fill="#019102"/>
	<circle id="Ellipse 84" cx="202.219727" cy="53.312012" r="2.727382" fill="#6C63FF"/>
	<path id="Path 4025" d="M323 141.757C322.999 141.972 322.825 142.146 322.61 142.147L0.389648 142.147C0.174805 142.147 0 141.972 0 141.757C0 141.542 0.174805 141.367 0.389648 141.367L322.61 141.367C322.825 141.368 322.999 141.542 323 141.757Z" fill-rule="evenodd" fill="#3F3D56"/>
	<defs>
		<filter id="filter_1_334_dd" x="106.995117" y="39.012695" width="43.365234" height="43.364990" filterUnits="userSpaceOnUse" color-interpolation-filters="sRGB">
			<feFlood flood-opacity="0" result="BackgroundImageFix"/>
			<feColorMatrix in="SourceAlpha" type="matrix" values="0 0 0 0 0 0 0 0 0 0 0 0 0 0 0 0 0 0 127 0"/>
			<feOffset dx="0" dy="3"/>
			<feGaussianBlur stdDeviation="2"/>
			<feColorMatrix type="matrix" values="0 0 0 0 0 0 0 0 0 0 0 0 0 0 0 0 0 0 0.16 0"/>
			<feBlend mode="normal" in2="BackgroundImageFix" result="effect_dropShadow_1"/>
			<feBlend mode="normal" in="SourceGraphic" in2="effect_dropShadow_1" result="shape"/>
		</filter>
	</defs>
</svg>
