<svg width="326.562988" height="185.921387" viewBox="0 0 326.563 185.921" fill="none" xmlns="http://www.w3.org/2000/svg" xmlns:xlink="http://www.w3.org/1999/xlink">
	<desc>
			Created with Pixso.
	</desc>
	<g opacity="0.100000">
		<path id="Path 4072" d="M326.562 122.909C326.58 132.356 324.001 141.627 319.106 149.708C319.106 159.59 314.499 168.548 307.026 175.076C305.156 176.711 303.142 178.174 301.008 179.447C300.923 179.501 300.834 179.552 300.746 179.604C300.586 179.698 300.426 179.792 300.264 179.889L300.112 179.978C293.038 183.92 285.065 185.967 276.967 185.921L61.9932 185.921C47.1689 185.921 33.75 180.76 24.0273 172.418C14.3047 164.078 8.3125 152.534 8.3125 139.802C2.86816 131.419 -0.0195312 121.633 0 111.636C0 83.3362 22.6201 60.394 50.5264 60.394C51.5137 60.394 52.4932 60.4282 53.4658 60.4824C70.9756 30.6238 110.472 9.80249 156.356 9.80249C184.565 9.80249 210.35 17.6667 230.101 30.6609C237.583 26.4314 246.033 24.2136 254.627 24.2236C282.528 24.2239 305.153 47.166 305.153 75.4661C305.149 77.2568 305.054 79.0459 304.868 80.8269C318.516 90.4885 326.609 106.187 326.562 122.909Z" fill-rule="evenodd" fill="#019102"/>
	</g>
	<g opacity="0.100000">
		<ellipse id="Ellipse 98" cx="117.893555" cy="136.094482" rx="111.899017" ry="2.997295" fill="#6C63FF"/>
	</g>
	<g opacity="0.700000">
		<rect id="Rectangle 2033" x="40.535156" y="113.971436" width="35.682083" height="19.696510" fill="#65617D"/>
		<g opacity="0.100000">
			<rect id="Rectangle 2034" x="53.094727" y="117.396973" width="10.847354" height="2.283653" fill="#000000"/>
		</g>
		<g opacity="0.100000">
			<rect id="Rectangle 2035" x="54.451172" y="117.682373" width="8.135515" height="1.712740" fill="#000000"/>
		</g>
		<rect id="Rectangle 2036" x="76.788086" y="113.971436" width="35.682083" height="19.696510" fill="#65617D"/>
		<g opacity="0.100000">
			<rect id="Rectangle 2037" x="89.347656" y="117.396973" width="10.847354" height="2.283653" fill="#000000"/>
		</g>
		<g opacity="0.100000">
			<rect id="Rectangle 2038" x="90.704102" y="117.682373" width="8.135515" height="1.712740" fill="#000000"/>
		</g>
		<rect id="Rectangle 2039" x="40.535156" y="93.704102" width="35.682083" height="19.696510" fill="#65617D"/>
		<g opacity="0.100000">
			<rect id="Rectangle 2040" x="53.094727" y="97.129395" width="10.847354" height="2.283653" fill="#000000"/>
		</g>
		<g opacity="0.100000">
			<rect id="Rectangle 2041" x="54.451172" y="97.415039" width="8.135515" height="1.712740" fill="#000000"/>
		</g>
		<rect id="Rectangle 2042" x="76.788086" y="93.704102" width="35.682083" height="19.696510" fill="#65617D"/>
		<g opacity="0.100000">
			<rect id="Rectangle 2043" x="89.347656" y="97.129395" width="10.847354" height="2.283653" fill="#000000"/>
		</g>
		<g opacity="0.100000">
			<rect id="Rectangle 2044" x="90.704102" y="97.415039" width="8.135515" height="1.712740" fill="#000000"/>
		</g>
		<rect id="Rectangle 2045" x="40.535156" y="73.151123" width="35.682083" height="19.696510" fill="#65617D"/>
		<g opacity="0.100000">
			<rect id="Rectangle 2046" x="53.094727" y="76.576660" width="10.847354" height="2.283653" fill="#000000"/>
		</g>
		<g opacity="0.100000">
			<rect id="Rectangle 2047" x="54.451172" y="76.862061" width="8.135515" height="1.712740" fill="#000000"/>
		</g>
		<rect id="Rectangle 2048" x="76.788086" y="73.151123" width="35.682083" height="19.696510" fill="#65617D"/>
		<g opacity="0.100000">
			<rect id="Rectangle 2049" x="89.347656" y="76.576660" width="10.847354" height="2.283653" fill="#000000"/>
		</g>
		<g opacity="0.100000">
			<rect id="Rectangle 2050" x="90.704102" y="76.862061" width="8.135515" height="1.712740" fill="#000000"/>
		</g>
		<rect id="Rectangle 2051" x="76.788086" y="52.598145" width="35.682083" height="19.696510" fill="#65617D"/>
		<g opacity="0.100000">
			<rect id="Rectangle 2052" x="89.347656" y="56.023682" width="10.847354" height="2.283653" fill="#000000"/>
		</g>
		<g opacity="0.100000">
			<rect id="Rectangle 2053" x="90.704102" y="56.309326" width="8.135515" height="1.712740" fill="#000000"/>
		</g>
	</g>
	<g opacity="0.700000">
		<rect id="Rectangle 2054" x="113.041016" y="113.686035" width="35.682083" height="19.696510" fill="#65617D"/>
		<g opacity="0.100000">
			<rect id="Rectangle 2055" x="125.600586" y="117.111328" width="10.847354" height="2.283653" fill="#000000"/>
		</g>
		<g opacity="0.100000">
			<rect id="Rectangle 2056" x="126.957031" y="117.396973" width="8.135515" height="1.712740" fill="#000000"/>
		</g>
		<rect id="Rectangle 2057" x="149.293945" y="113.686035" width="35.682083" height="19.696510" fill="#65617D"/>
		<g opacity="0.100000">
			<rect id="Rectangle 2058" x="161.854004" y="117.111328" width="10.847354" height="2.283653" fill="#000000"/>
		</g>
		<g opacity="0.100000">
			<rect id="Rectangle 2059" x="163.209961" y="117.396973" width="8.135515" height="1.712740" fill="#000000"/>
		</g>
		<rect id="Rectangle 2060" x="113.041016" y="93.418457" width="35.682083" height="19.696510" fill="#65617D"/>
		<g opacity="0.100000">
			<rect id="Rectangle 2061" x="125.600586" y="96.843994" width="10.847354" height="2.283653" fill="#000000"/>
		</g>
		<g opacity="0.100000">
			<rect id="Rectangle 2062" x="126.957031" y="97.129395" width="8.135515" height="1.712740" fill="#000000"/>
		</g>
		<rect id="Rectangle 2063" x="149.293945" y="93.418457" width="35.682083" height="19.696510" fill="#65617D"/>
		<g opacity="0.100000">
			<rect id="Rectangle 2064" x="161.854004" y="96.843994" width="10.847354" height="2.283653" fill="#000000"/>
		</g>
		<g opacity="0.100000">
			<rect id="Rectangle 2065" x="163.209961" y="97.129395" width="8.135515" height="1.712740" fill="#000000"/>
		</g>
		<rect id="Rectangle 2066" x="113.041016" y="72.865723" width="35.682083" height="19.696510" fill="#65617D"/>
		<g opacity="0.100000">
			<rect id="Rectangle 2067" x="125.600586" y="76.291260" width="10.847354" height="2.283653" fill="#000000"/>
		</g>
		<g opacity="0.100000">
			<rect id="Rectangle 2068" x="126.957031" y="76.576660" width="8.135515" height="1.712740" fill="#000000"/>
		</g>
		<rect id="Rectangle 2069" x="149.293945" y="72.865723" width="35.682083" height="19.696510" fill="#65617D"/>
		<g opacity="0.100000">
			<rect id="Rectangle 2070" x="161.854004" y="76.291260" width="10.847354" height="2.283653" fill="#000000"/>
		</g>
		<g opacity="0.100000">
			<rect id="Rectangle 2071" x="163.209961" y="76.576660" width="8.135515" height="1.712740" fill="#000000"/>
		</g>
		<rect id="Rectangle 2072" x="149.293945" y="52.312744" width="35.682083" height="19.696510" fill="#65617D"/>
		<g opacity="0.100000">
			<rect id="Rectangle 2073" x="161.854004" y="55.738281" width="10.847354" height="2.283653" fill="#000000"/>
		</g>
		<g opacity="0.100000">
			<rect id="Rectangle 2074" x="163.209961" y="56.023682" width="8.135515" height="1.712740" fill="#000000"/>
		</g>
	</g>
	<g opacity="0.100000">
		<path id="Path 4073" d="M250.713 0.03125C250.713 0.03125 226.681 -1.41895 229.507 15.4231C229.507 15.4231 228.936 18.4004 231.642 19.7507C231.642 19.7507 231.685 18.5032 234.108 18.9285C234.971 19.0715 235.848 19.1138 236.72 19.0542C237.899 18.9727 239.02 18.5098 239.912 17.7354C239.912 17.7354 246.668 14.9436 249.295 3.9021C249.295 3.9021 251.239 1.49292 251.162 0.873291L247.105 2.6062C247.105 2.6062 248.493 5.53198 247.391 7.96411C247.391 7.96411 247.259 2.71167 246.48 2.82593C246.323 2.85156 244.374 3.83936 244.374 3.83936C244.374 3.83936 246.757 8.93457 244.958 12.6399C244.958 12.6399 245.641 6.35986 243.628 4.20752L240.774 5.87451C240.774 5.87451 243.56 11.1384 241.67 15.4346C241.67 15.4346 242.155 8.84619 240.171 6.28003L237.585 8.2981C237.585 8.2981 240.203 13.4878 238.607 17.0503C238.607 17.0503 238.399 9.37988 237.026 8.80054C237.026 8.80054 234.762 10.7988 234.417 11.6152C234.417 11.6152 236.209 15.3833 235.096 17.3699C235.096 17.3699 234.414 12.2603 233.854 12.2317C233.854 12.2317 231.6 15.6172 231.365 17.9409C231.365 17.9409 231.462 14.4868 233.309 11.9092C233.309 11.9092 231.128 12.2832 229.855 13.699C229.855 13.699 230.207 11.304 233.866 11.0957C233.866 11.0957 235.73 8.52661 236.227 8.36938C236.227 8.36938 232.59 8.06689 230.383 9.04321C230.383 9.04321 232.324 6.78516 236.895 7.81299L239.449 5.72607C239.449 5.72607 234.659 5.07251 232.627 5.79468C232.627 5.79468 234.965 3.79639 240.137 5.25513L242.923 3.60522C242.923 3.60522 238.838 2.72607 236.406 3.03418C236.406 3.03418 238.976 1.6499 243.74 3.15137L245.738 2.25781C245.738 2.25781 242.747 1.66992 241.87 1.57568C240.994 1.48145 240.948 1.2417 240.948 1.2417C242.843 0.925537 244.789 1.14209 246.569 1.8667C246.569 1.8667 250.788 0.296875 250.713 0.03125Z" fill-rule="evenodd" fill="#019102"/>
	</g>
	<g opacity="0.100000">
		<path id="Path 4074" d="M221.072 4.31616C221.072 4.31616 210.224 3.65967 211.495 11.2727C211.495 11.2727 211.241 12.6172 212.457 13.228C212.457 13.228 212.477 12.6572 213.573 12.8542C213.962 12.9197 214.358 12.939 214.751 12.9114C215.284 12.875 215.791 12.6655 216.193 12.3147C216.193 12.3147 219.248 11.0559 220.435 6.06616C220.435 6.06616 221.312 4.97559 221.277 4.6958L219.444 5.47803C219.444 5.47803 220.073 6.80249 219.579 7.90161C219.579 7.90161 219.519 5.52661 219.167 5.5835C219.096 5.5835 218.214 6.04028 218.214 6.04028C218.214 6.04028 219.293 8.34399 218.479 10.0195C218.479 10.0195 218.788 7.18213 217.877 6.20874L216.587 6.9624C216.587 6.9624 217.849 9.34033 216.992 11.2812C216.992 11.2812 217.212 8.30396 216.316 7.14502L215.148 8.05566C215.148 8.05566 216.33 10.4021 215.611 12.0122C215.611 12.0122 215.517 8.54395 214.895 8.28394C214.895 8.28394 213.873 9.18604 213.715 9.55713C213.715 9.55713 214.526 11.27 214.023 12.1548C214.023 12.1548 213.715 9.84546 213.453 9.83691C213.453 9.83691 212.437 11.3669 212.328 12.406C212.379 11.4363 212.682 10.4966 213.207 9.67993C212.619 9.79126 212.077 10.072 211.646 10.4878C211.646 10.4878 211.806 9.40869 213.458 9.31177C213.458 9.31177 214.315 8.15283 214.526 8.0813C214.526 8.0813 212.882 7.94434 211.886 8.38672C211.886 8.38672 212.762 7.36499 214.829 7.83008L215.971 6.88818C215.971 6.88818 213.807 6.60278 212.888 6.91968C212.888 6.91968 213.944 6.01758 216.282 6.67407L217.538 5.92334C217.538 5.92334 215.693 5.52368 214.592 5.66919C214.592 5.66919 215.753 5.04126 217.906 5.7207L218.805 5.31812C218.805 5.31812 217.452 5.0498 217.055 5.00977C216.659 4.96997 216.639 4.85864 216.639 4.85864C217.496 4.71606 218.375 4.81494 219.179 5.14404C219.179 5.14404 221.106 4.43604 221.072 4.31616Z" fill-rule="evenodd" fill="#019102"/>
	</g>
	<path id="Path 4104" d="M63.9971 180.169C70.3359 180.169 75.4746 181.038 75.4746 182.11C75.4746 183.182 70.3359 184.051 63.9971 184.051C57.6572 184.051 52.5186 183.182 52.5186 182.11C52.5186 181.038 57.6572 180.169 63.9971 180.169Z" fill-rule="evenodd" fill="#037404"/>
	<path id="Path 4075" d="M68.7441 178.936C69.2676 178.509 69.6494 177.932 69.8369 177.283C69.9795 176.629 69.7002 175.855 69.0723 175.602C68.3701 175.333 67.6191 175.821 67.0508 176.312C66.4824 176.803 65.8291 177.365 65.0869 177.26C65.8652 176.553 66.2158 175.491 66.0117 174.459C65.9795 174.25 65.8906 174.052 65.7549 173.889C65.3643 173.472 64.6592 173.649 64.1904 173.977C62.7061 175.022 62.292 177.04 62.2842 178.853C62.1357 178.199 62.2607 177.517 62.2578 176.854C62.2549 176.192 62.0693 175.427 61.502 175.076C61.1514 174.888 60.7578 174.795 60.3594 174.808C59.6943 174.782 58.9492 174.851 58.4961 175.339C57.9248 175.944 58.0762 176.96 58.5674 177.623C59.0586 178.285 59.8086 178.71 60.5 179.17C61.0527 179.499 61.5234 179.949 61.8789 180.486C61.9209 180.561 61.9561 180.64 61.9814 180.722L66.166 180.722C67.1016 180.246 67.9688 179.645 68.7441 178.936Z" fill-rule="evenodd" fill="#019102"/>
	<path id="Path 4076" d="M204.775 97.6292C204.728 97.1899 204.46 96.8047 204.064 96.6072C203.733 96.4663 203.359 96.4656 203.028 96.6055C202.696 96.7454 202.436 97.0139 202.306 97.3494L195.966 110.689L194.539 163.213L196.822 163.213L197.679 110.806L204.655 98.457C204.781 98.2007 204.823 97.9109 204.775 97.6292Z" fill-rule="evenodd" fill="#3F3D56"/>
	<g opacity="0.100000">
		<path id="Path 4077" d="M307.026 175.076C305.155 176.711 303.142 178.174 301.008 179.447C300.975 179.494 300.938 179.538 300.897 179.578C300.67 179.77 300.401 179.905 300.112 179.972C293.038 183.915 285.065 185.962 276.967 185.915L120.018 185.915C102.033 184.065 91.0605 181.613 91.0605 178.921C91.0605 176.835 97.6484 174.891 108.993 173.264C110.169 173.092 111.396 172.927 112.673 172.767C113.458 172.668 114.263 172.573 115.085 172.481L116.48 172.319C117.516 172.201 118.578 172.086 119.669 171.974L120.899 171.859C121.864 171.76 122.849 171.665 123.854 171.574L124.585 171.508L126.448 171.343C127.659 171.234 128.896 171.13 130.159 171.031C131.208 170.95 132.273 170.868 133.356 170.786C144.335 169.972 156.993 169.359 170.766 168.962L174.699 168.828L176.024 168.799L178.821 168.736L179.943 168.713L181.122 168.691L181.961 168.677L185.901 168.614L187.924 168.585L188.338 168.585C193.125 168.528 198 168.499 202.965 168.497C212.779 168.497 222.296 168.614 231.365 168.836C236.572 168.962 241.62 169.122 246.509 169.316C260.605 169.87 273.268 170.686 283.709 171.699L283.901 171.719C286.581 171.979 289.119 172.256 291.5 172.542C293.74 172.81 295.844 173.092 297.797 173.381C298.474 173.481 299.13 173.583 299.77 173.683L299.932 173.712C302.638 174.149 305.013 174.594 307.026 175.076Z" fill-rule="evenodd" fill="#6C63FF"/>
	</g>
	<path id="Path 4078" d="M301.008 179.447C300.975 179.493 300.938 179.538 300.897 179.578C300.671 179.77 300.401 179.905 300.112 179.972C299.535 180.134 298.941 180.229 298.342 180.257L298.163 180.257C297.82 180.269 297.478 180.257 297.138 180.223C296.889 180.187 296.638 180.171 296.387 180.175C296.022 180.226 295.629 180.315 295.282 180.44C294.51 180.652 293.714 180.765 292.913 180.777L292.627 180.777C291.731 180.777 290.823 180.745 289.924 180.751C289.778 180.751 289.639 180.751 289.487 180.751C287.946 180.791 286.413 181.037 284.872 181.062L284.377 181.062C282.868 181.025 281.323 180.703 280.122 179.789C279.879 179.629 279.683 179.409 279.551 179.15C279.448 178.876 279.414 178.583 279.451 178.293C279.479 177.777 279.579 177.214 279.967 176.866C280.211 176.679 280.491 176.544 280.79 176.469C281.312 176.301 281.837 176.138 282.359 175.976C282.882 175.813 283.479 175.639 284.041 175.473L284.149 175.439L284.463 175.345L284.666 175.276C284.912 175.197 285.147 175.09 285.368 174.956C285.659 174.772 285.906 174.525 286.09 174.234C286.122 174.183 286.156 174.128 286.185 174.074C286.213 174.02 286.185 173.986 286.165 173.94C286.116 173.583 286.079 173.218 286.016 172.87C285.213 172.683 284.48 172.269 283.907 171.677C283.414 171.188 282.999 170.627 282.676 170.012C281.966 168.676 281.6 167.183 281.069 165.765C280.256 163.607 279.071 161.614 277.878 159.639C276.788 157.817 275.691 155.991 274.452 154.269C273.627 153.127 272.74 152.04 271.923 150.895C269.614 147.701 267.957 144.083 267.047 140.248C266.908 139.512 266.711 138.788 266.457 138.084C265.966 136.885 265.066 135.909 264.37 134.812C263.621 133.631 263.108 132.315 262.86 130.939C262.717 130.157 262.478 129.312 261.698 129.226L261.615 129.389C260 132.529 258.341 135.726 255.906 138.289C255.517 138.666 255.161 139.076 254.841 139.514C254.585 139.939 254.357 140.379 254.156 140.833C253.771 141.647 253.259 142.396 252.641 143.051C252.457 143.237 252.256 143.406 252.041 143.556C251.756 143.763 251.438 143.923 251.102 144.027C250.969 144.068 250.834 144.098 250.697 144.118C250.7 144.153 250.731 144.292 250.736 144.33C251.157 146.614 250.977 148.967 250.214 151.161C250.194 151.229 250.171 151.295 250.146 151.363C250.028 151.683 249.899 151.997 249.76 152.305C249.412 153.062 248.998 153.787 248.673 154.555C248.619 154.686 248.564 154.817 248.516 154.949C247.374 158.006 247.659 161.42 247.511 164.706C247.498 165.424 247.413 166.139 247.257 166.841C247.063 167.632 246.751 168.448 246.58 169.264C246.424 169.876 246.412 170.516 246.543 171.134C246.238 171.248 245.858 171.377 245.547 171.474C245.658 172.113 245.767 172.795 245.878 173.432C245.972 173.98 246.083 174.574 246.466 174.962C246.57 175.048 246.666 175.143 246.751 175.248C246.977 175.602 246.777 176.07 246.82 176.489C246.883 177.083 247.431 177.588 247.345 178.179C247.267 178.538 247.017 178.834 246.678 178.973C246.537 179.036 246.389 179.083 246.238 179.113C246.066 179.144 245.801 179.181 245.63 179.198C243.503 179.409 241.348 179.621 239.241 179.261C238.825 179.19 238.411 179.095 237.988 179.061C237.454 179.037 236.919 179.059 236.39 179.127C232.481 179.497 228.551 179.573 224.631 179.355C223.612 179.298 222.442 179.133 221.903 178.262C221.455 177.54 221.617 176.606 221.843 175.781C221.907 175.478 222.024 175.188 222.188 174.925C222.713 174.271 223.764 174.151 224.615 174.177L227.395 174.26C227.668 174.282 227.944 174.261 228.211 174.197C228.662 174.066 229.005 173.706 229.427 173.503C229.958 173.249 230.626 173.218 231.009 172.784C231.076 172.692 231.188 172.534 231.246 172.436C231.256 172.418 231.308 172.341 231.32 172.324C231.671 171.862 232.285 171.708 232.784 171.414C232.86 171.37 232.932 171.319 232.998 171.262C232.46 170.879 232.048 170.355 231.668 169.815C231.521 169.657 231.413 169.468 231.351 169.261C231.316 169.106 231.328 168.944 231.386 168.796C231.398 168.76 231.413 168.724 231.431 168.69C231.625 168.308 232.039 167.934 232.259 167.543C232.562 166.972 232.642 166.047 232.193 165.588C232.422 161.828 233.455 158.166 233.684 154.395C233.775 152.902 233.738 151.403 233.806 149.905C233.875 148.406 234.035 146.953 234.203 145.483C234.58 142.123 235.493 138.832 235.365 135.458C235.354 135.143 235.367 134.828 235.405 134.516C235.496 133.824 235.712 133.086 236.042 132.472C236.455 131.777 236.924 131.116 237.443 130.497C239.198 128.213 241.308 125.929 241.933 123.12C242.256 121.67 242.969 120.343 243.68 119.038C244.1 118.262 244.537 117.465 245.207 116.895C245.571 116.643 245.908 116.356 246.215 116.038C246.683 115.433 246.7 114.596 246.977 113.877C247.12 113.503 247.34 113.161 247.448 112.775C247.448 112.735 247.468 112.698 247.477 112.658C247.54 112.269 247.573 111.876 247.577 111.482C247.577 111.368 247.594 111.257 247.608 111.145C247.774 110.017 248.103 108.918 248.582 107.883C248.641 107.751 248.698 107.617 248.755 107.486C247.438 106.717 246.277 105.709 245.33 104.514C245.009 104.127 244.73 103.707 244.499 103.261C243.911 102.094 243.777 100.763 243.5 99.4844C242.838 96.4358 241.322 93.564 241.111 90.4468C241.048 89.4963 241.111 88.5144 240.78 87.615C240.688 87.3721 240.581 87.1355 240.457 86.9072C240.406 86.8101 240.357 86.7131 240.306 86.6218L240.249 86.5132L240.104 86.2278L239.869 86.4104C234.029 90.9832 227.898 95.1711 221.515 98.9478L220.966 99.2732C220.681 99.4109 220.433 99.6145 220.241 99.8669C220.218 99.9041 220.198 99.9412 220.179 99.9783C220.047 100.25 220.013 100.549 219.893 100.835C219.636 101.488 218.977 101.905 218.303 102.099C217.084 102.413 215.792 102.246 214.692 101.634C214.552 101.562 214.407 101.488 214.281 101.406C213.947 101.591 213.595 101.741 213.23 101.854C212.088 102.185 210.893 102.171 209.711 102.168C208.529 102.165 207.321 102.168 206.203 102.556C205.455 102.81 204.729 103.229 203.953 103.27C203.864 103.275 203.774 103.275 203.685 103.27C203.242 103.219 202.812 103.092 202.412 102.896L202.178 102.79C202.056 102.733 201.938 102.669 201.824 102.599C201.699 102.521 201.583 102.431 201.478 102.328C201.327 102.176 201.217 101.988 201.158 101.782C201.12 101.634 201.12 101.477 201.158 101.329C201.169 101.262 201.204 101.201 201.255 101.157C201.307 101.127 201.365 101.112 201.424 101.114C201.751 101.111 202.078 101.139 202.4 101.197C202.589 101.223 202.78 101.234 202.971 101.229L203.074 101.229C203.414 101.192 203.724 101.016 203.93 100.743C203.961 100.701 203.987 100.655 204.004 100.606C204.039 100.526 204.057 100.439 204.056 100.352C203.936 100.298 203.816 100.178 203.702 100.113C203.642 100.081 203.585 100.047 203.528 100.012C203.425 99.9429 203.295 99.8408 203.208 99.7527C203.152 99.6978 203.104 99.6365 203.062 99.5701C202.987 99.4668 202.93 99.3506 202.894 99.2275C202.659 99.1785 202.416 99.1853 202.183 99.2476C201.872 99.3333 201.558 99.5159 201.25 99.5786C201.094 99.6179 200.931 99.6108 200.779 99.5586C200.333 99.3989 200.176 98.8564 200.083 98.3911C200.065 98.3027 200.045 98.2112 200.031 98.1199C199.998 97.9446 199.998 97.7644 200.031 97.5891C200.169 97.1902 200.433 96.8467 200.782 96.6099L201.718 95.825C201.718 95.7478 201.755 95.6138 201.744 95.5366C201.711 95.3601 201.711 95.1792 201.744 95.0029C201.882 94.6047 202.145 94.2622 202.495 94.0266L204.567 92.2822C204.955 91.957 205.377 91.6145 205.883 91.5801C206.634 91.5288 207.233 92.1511 207.795 92.6506C208.503 93.2786 209.362 93.7925 210.308 93.8552C210.757 93.8757 211.207 93.814 211.635 93.6726L211.877 93.5928C211.826 93.4871 211.774 93.3813 211.726 93.2759C211.644 93.1016 211.561 92.9248 211.48 92.7476C212.697 92.6707 213.801 92.0027 214.724 91.2034C215.646 90.4041 216.436 89.4592 217.367 88.6743C218.372 87.8179 219.525 87.1812 220.544 86.3562C222.913 84.4353 224.486 81.6121 227.021 79.9192C227.9 79.3284 228.916 78.8574 229.516 77.978C229.701 77.6929 229.841 77.4072 230.032 77.1218C230.641 76.2654 231.683 75.8716 232.542 75.2778C233.401 74.6841 234.149 73.8132 234.848 72.9771C235.345 72.3804 235.844 71.7837 236.318 71.1699C236.755 70.3564 237.123 69.5059 237.58 68.7036C237.967 68.0261 238.42 67.3875 238.93 66.7969C239.047 66.5684 239.167 66.3401 239.295 66.1174C239.424 65.8948 239.518 65.7434 239.638 65.5466C239.721 65.418 239.807 65.2954 239.895 65.1697C239.635 64.7102 239.387 64.3135 239.27 64.1392C239.018 63.8711 238.692 63.5422 238.408 63.3086C238.109 63.2632 237.813 63.2004 237.523 63.1201C233.901 62.1277 231.392 58.834 231.397 55.0789C231.398 53.7708 231.709 52.4556 232.305 51.2908C232.425 51.0566 232.553 50.8313 232.693 50.6113C232.562 50.5703 232.436 50.5188 232.313 50.4573C232.105 50.3545 231.923 50.2051 231.782 50.0205C231.666 49.856 231.591 49.6663 231.562 49.4668C231.514 48.9963 231.585 48.5212 231.768 48.0852C231.846 47.8752 231.935 47.6694 232.033 47.4685C233.31 44.8994 236.05 43.2837 238.768 43.1724C241.699 43.0554 244.554 44.4314 246.866 46.4009C247.556 46.967 248.173 47.6162 248.704 48.3335C249.912 50.012 250.457 52.1587 250.617 54.2852C250.677 54.9429 250.665 55.6052 250.583 56.2605C250.552 56.4941 250.504 56.7251 250.44 56.9514C250.403 57.0854 250.354 57.2197 250.303 57.354C250.251 57.488 250.22 57.5481 250.174 57.6394C250.131 57.7307 250.083 57.8306 250.034 57.9163C250.057 57.9705 250.02 58.1245 250.046 58.179C250.071 58.2332 250.094 58.2844 250.123 58.3359C250.694 58.3816 251.256 58.4614 251.838 58.5073C252.112 58.5203 252.384 58.5623 252.649 58.6328C253.22 58.804 253.651 59.2207 254.131 59.5576C255.318 60.397 256.78 60.7881 257.947 61.6558C259.66 62.9346 260.516 65.0469 261.556 66.9395C262.926 69.4744 265.158 71.6323 266.143 74.3442C266.588 75.5757 267.035 76.8049 267.484 78.0325C268.361 80.4387 269.237 82.8567 270.427 85.126C272.083 88.2832 274.324 91.1206 275.651 94.4375C275.783 94.77 276.03 95.0437 276.348 95.2083C278.156 97.7625 279.765 100.453 281.158 103.255C281.892 104.737 282.585 106.275 282.799 107.917C282.966 109.378 282.845 110.858 282.442 112.273C282.214 113.113 281.936 113.939 281.606 114.745C281.478 115.027 281.382 115.323 281.32 115.627C281.263 116.175 281.472 116.812 281.529 117.36C281.577 117.801 281.527 118.247 281.383 118.667C281.36 118.733 281.335 118.798 281.309 118.864C281.132 119.198 280.982 119.545 280.861 119.903C280.851 119.947 280.843 119.99 280.838 120.034C280.744 120.654 280.989 121.279 281.124 121.899C281.626 124.136 281.535 126.466 281.409 128.75C281.343 129.891 282.265 130.808 283.036 131.65C284.463 133.228 285.58 135.075 286.655 136.914C287.243 137.847 287.737 138.835 288.131 139.865C288.54 141.041 288.702 142.286 288.928 143.505C289.656 147.273 292.034 150.601 292.679 154.378C292.978 156.107 293.741 157.723 294.885 159.054C295.23 159.41 295.548 159.792 295.836 160.196C296.035 160.517 296.193 160.862 296.307 161.223C296.588 162.062 296.72 162.944 296.698 163.829C296.653 164.253 296.677 164.681 296.77 165.097C297.038 165.973 297.997 166.456 298.394 167.281C298.79 168.105 298.517 169.162 298.679 170.098C298.807 170.853 299.214 171.532 299.821 171.999C299.593 172.199 299.353 172.382 299.107 172.57C299.334 172.746 299.534 172.956 299.698 173.192C299.811 173.35 299.906 173.52 299.983 173.698C300.36 174.574 300.372 175.616 300.68 176.552C300.812 176.94 300.997 177.351 300.883 177.745C300.834 177.858 300.801 177.977 300.786 178.099C300.786 178.356 301.054 178.525 301.157 178.759C301.233 178.998 301.177 179.26 301.008 179.447Z" fill-rule="evenodd" fill="url(#paint_linear_1_384_0)"/>
	<path id="Path 4079" d="M240.594 68.1184C242.341 67.6475 243.896 66.6626 245.421 65.6892L250.733 62.3066C249.292 62.1924 248.047 61.1648 247.308 59.9202C246.568 58.6755 246.263 57.2283 246.012 55.8066C243.729 56.6973 241.75 58.2073 239.906 59.8032C239.175 60.4338 237.623 61.3875 237.397 62.3721C237.171 63.3569 238.61 64.1562 239.167 64.8157C239.358 65.0354 241.159 67.9614 240.594 68.1184Z" fill-rule="evenodd" fill="#FBBEBE"/>
	<g opacity="0.100000">
		<path id="Path 4080" d="M240.594 68.1184C242.341 67.6475 243.896 66.6626 245.421 65.6892L250.733 62.3066C249.292 62.1924 248.047 61.1648 247.308 59.9202C246.568 58.6755 246.263 57.2283 246.012 55.8066C243.729 56.6973 241.75 58.2073 239.906 59.8032C239.175 60.4338 237.623 61.3875 237.397 62.3721C237.171 63.3569 238.61 64.1562 239.167 64.8157C239.358 65.0354 241.159 67.9614 240.594 68.1184Z" fill-rule="evenodd" fill="#000000"/>
	</g>
	<path id="Path 4081" d="M211.566 96.0591C210.63 96.5386 209.634 97.0298 208.586 96.9612C207.644 96.9011 206.785 96.3901 206.077 95.7651C205.506 95.2683 204.918 94.6489 204.167 94.7002C203.665 94.7346 203.242 95.0742 202.854 95.3967L200.784 97.1294C200.436 97.3638 200.173 97.7041 200.034 98.1001C199.993 98.3687 200.009 98.6431 200.082 98.905C200.176 99.3677 200.333 99.907 200.779 100.064C201.224 100.221 201.709 99.8843 202.18 99.7559C202.767 99.606 203.388 99.7888 203.799 100.232C203.967 100.398 204.068 100.619 204.084 100.855C204.084 101.372 203.513 101.711 202.988 101.737C202.463 101.762 201.96 101.591 201.441 101.623C201.377 101.615 201.313 101.633 201.264 101.672C201.214 101.712 201.182 101.77 201.175 101.834C201.11 102.2 201.236 102.575 201.509 102.827C201.781 103.075 202.096 103.269 202.44 103.398C202.839 103.596 203.271 103.721 203.713 103.769C204.589 103.826 205.395 103.341 206.225 103.059C207.344 102.682 208.549 102.67 209.73 102.673C210.912 102.676 212.111 102.693 213.245 102.362C214.378 102.031 215.454 101.297 215.896 100.204C215.949 100.102 215.966 99.9854 215.945 99.8728C215.901 99.7524 215.816 99.6516 215.705 99.5874C214.112 98.4082 213.467 96.9753 211.674 96.1274L211.566 96.0591Z" fill-rule="evenodd" fill="#FBBEBE"/>
	<g opacity="0.100000">
		<path id="Path 4082" d="M211.566 96.0591C210.63 96.5386 209.634 97.0298 208.586 96.9612C207.644 96.9011 206.785 96.3901 206.077 95.7651C205.506 95.2683 204.918 94.6489 204.167 94.7002C203.665 94.7346 203.242 95.0742 202.854 95.3967L200.784 97.1294C200.436 97.3638 200.173 97.7041 200.034 98.1001C199.993 98.3687 200.009 98.6431 200.082 98.905C200.176 99.3677 200.333 99.907 200.779 100.064C201.224 100.221 201.709 99.8843 202.18 99.7559C202.767 99.606 203.388 99.7888 203.799 100.232C203.967 100.398 204.068 100.619 204.084 100.855C204.084 101.372 203.513 101.711 202.988 101.737C202.463 101.762 201.96 101.591 201.441 101.623C201.377 101.615 201.313 101.633 201.264 101.672C201.214 101.712 201.182 101.77 201.175 101.834C201.11 102.2 201.236 102.575 201.509 102.827C201.781 103.075 202.096 103.269 202.44 103.398C202.839 103.596 203.271 103.721 203.713 103.769C204.589 103.826 205.395 103.341 206.225 103.059C207.344 102.682 208.549 102.67 209.73 102.673C210.912 102.676 212.111 102.693 213.245 102.362C214.378 102.031 215.454 101.297 215.896 100.204C215.949 100.102 215.966 99.9854 215.945 99.8728C215.901 99.7524 215.816 99.6516 215.705 99.5874C214.112 98.4082 213.467 96.9753 211.674 96.1274L211.566 96.0591Z" fill-rule="evenodd" fill="#000000"/>
	</g>
	<path id="Path 4083" d="M244.993 65.615C244.096 65.0356 242.979 64.906 241.973 65.2639C240.979 65.6221 240.086 66.2168 239.373 66.9966C238.66 67.7231 238.043 68.5376 237.537 69.4202C237.052 70.2764 236.681 71.1729 236.195 72.0264C235.339 73.5535 234.22 74.9009 233.095 76.2368C232.396 77.0676 231.688 77.9097 230.792 78.5205C229.896 79.1313 228.894 79.5054 228.285 80.3533C228.094 80.6216 227.957 80.9241 227.769 81.1953C227.172 82.0688 226.159 82.5369 225.276 83.1221C222.748 84.8062 221.175 87.6094 218.811 89.519C217.792 90.3413 216.642 90.9863 215.64 91.8257C214.706 92.605 213.927 93.5383 212.996 94.3376C212.065 95.137 210.973 95.7964 209.759 95.8706C210.57 97.6775 211.538 99.4502 212.928 100.857C214.318 102.265 216.402 103.164 218.3 102.613C218.974 102.419 219.633 102.008 219.89 101.357C219.971 101.022 220.084 100.697 220.227 100.384C220.418 100.133 220.665 99.9299 220.949 99.7927C228.569 95.3447 235.833 90.3123 242.675 84.7407C244.511 83.2449 246.332 81.906 248.216 80.4587C248.892 79.9795 249.516 79.4326 250.08 78.8259C251.687 76.9075 251.984 74.2117 250.833 71.9893C250.328 71.1577 249.75 70.3733 249.104 69.6455C247.929 68.1162 246.545 66.7595 244.993 65.615Z" fill-rule="evenodd" fill="#005A01"/>
	<g opacity="0.100000">
		<path id="Path 4084" d="M244.993 65.615C244.096 65.0356 242.979 64.906 241.973 65.2639C240.979 65.6221 240.086 66.2168 239.373 66.9966C238.66 67.7231 238.043 68.5376 237.537 69.4202C237.052 70.2764 236.681 71.1729 236.195 72.0264C235.339 73.5535 234.22 74.9009 233.095 76.2368C232.396 77.0676 231.688 77.9097 230.792 78.5205C229.896 79.1313 228.894 79.5054 228.285 80.3533C228.094 80.6216 227.957 80.9241 227.769 81.1953C227.172 82.0688 226.159 82.5369 225.276 83.1221C222.748 84.8062 221.175 87.6094 218.811 89.519C217.792 90.3413 216.642 90.9863 215.64 91.8257C214.706 92.605 213.927 93.5383 212.996 94.3376C212.065 95.137 210.973 95.7964 209.759 95.8706C210.57 97.6775 211.538 99.4502 212.928 100.857C214.318 102.265 216.402 103.164 218.3 102.613C218.974 102.419 219.633 102.008 219.89 101.357C219.971 101.022 220.084 100.697 220.227 100.384C220.418 100.133 220.665 99.9299 220.949 99.7927C228.569 95.3447 235.833 90.3123 242.675 84.7407C244.511 83.2449 246.332 81.906 248.216 80.4587C248.892 79.9795 249.516 79.4326 250.08 78.8259C251.687 76.9075 251.984 74.2117 250.833 71.9893C250.328 71.1577 249.75 70.3733 249.104 69.6455C247.929 68.1162 246.545 66.7595 244.993 65.615Z" fill-rule="evenodd" fill="#085A08"/>
	</g>
	<path id="Path 4085" d="M232.727 171.511C232.228 171.796 231.613 171.956 231.262 172.419C231.148 172.567 231.071 172.741 230.948 172.884C230.569 173.329 229.895 173.349 229.367 173.604C228.944 173.803 228.602 174.174 228.154 174.291C227.886 174.355 227.609 174.376 227.334 174.354L224.56 174.271C223.681 174.246 222.65 174.291 222.139 175.008C221.973 175.27 221.855 175.56 221.791 175.864C221.577 176.683 221.403 177.611 221.851 178.33C222.388 179.187 223.563 179.361 224.577 179.418C228.492 179.635 232.417 179.558 236.321 179.189C236.849 179.122 237.382 179.1 237.914 179.124C238.336 179.158 238.75 179.252 239.167 179.324C241.271 179.681 243.423 179.472 245.547 179.261C245.906 179.244 246.259 179.168 246.594 179.039C246.933 178.9 247.181 178.604 247.26 178.248C247.348 177.66 246.797 177.16 246.737 176.569C246.694 176.152 246.894 175.687 246.666 175.333C246.58 175.229 246.484 175.133 246.38 175.048C245.998 174.651 245.887 174.071 245.792 173.529L245.292 170.597C245.279 170.391 245.194 170.195 245.053 170.043C244.948 169.968 244.827 169.918 244.699 169.898C242.523 169.407 240.294 169.855 238.133 170.129C237.021 170.292 235.896 170.349 234.773 170.298C234.288 170.266 234.1 170.209 233.737 170.526C233.375 170.843 233.181 171.245 232.727 171.511Z" fill-rule="evenodd" fill="#3F3D56"/>
	<path id="Path 4086" d="M285.254 175.039C284.872 175.252 284.463 175.413 284.038 175.516C282.917 175.843 281.798 176.185 280.681 176.541C280.384 176.614 280.105 176.748 279.862 176.935C279.474 177.277 279.374 177.836 279.345 178.362C279.308 178.651 279.342 178.945 279.445 179.218C279.579 179.474 279.775 179.692 280.016 179.852C281.295 180.82 282.964 181.119 284.569 181.119C286.173 181.119 287.766 180.848 289.37 180.805C291.309 180.754 293.298 181.028 295.162 180.486C295.518 180.354 295.888 180.264 296.264 180.217C296.514 180.213 296.764 180.229 297.012 180.266C298.012 180.365 299.021 180.272 299.986 179.995C300.277 179.93 300.547 179.796 300.774 179.604C301.004 179.404 301.088 179.085 300.985 178.798C300.883 178.567 300.62 178.399 300.617 178.145C300.631 178.023 300.663 177.903 300.711 177.791C300.829 177.4 300.64 176.992 300.509 176.606C300.141 175.504 300.201 174.237 299.541 173.281C298.882 172.324 297.671 171.93 296.521 171.779C295.586 171.647 294.635 171.674 293.709 171.859C292.667 172.082 291.694 172.547 290.672 172.844C289.486 173.185 288.247 173.302 287.018 173.189C286.202 173.121 286.481 173.249 286.205 173.934C286.008 174.391 285.676 174.777 285.254 175.039Z" fill-rule="evenodd" fill="#3F3D56"/>
	<circle id="Ellipse 100" cx="239.640625" cy="55.881104" r="8.278244" fill="#FBBEBE"/>
	<path id="Path 4087" d="M299.655 172.079C297.086 174.285 293.618 175.25 290.235 175.285C288.808 175.299 287.326 175.145 286.11 174.405C286.025 173.937 285.991 173.432 285.905 172.964C284.429 172.656 283.284 171.454 282.571 170.124C281.857 168.793 281.495 167.315 280.964 165.904C280.153 163.758 278.965 161.78 277.778 159.816C276.688 158.006 275.594 156.19 274.353 154.48C273.53 153.339 272.64 152.265 271.826 151.126C269.521 147.956 267.867 144.36 266.959 140.547C266.82 139.816 266.623 139.097 266.368 138.398C265.877 137.205 264.978 136.234 264.285 135.146C263.536 133.973 263.023 132.665 262.774 131.296C262.634 130.519 262.395 129.68 261.615 129.6C259.977 132.783 258.307 136.017 255.829 138.606C255.44 138.98 255.083 139.387 254.765 139.822C254.509 140.245 254.28 140.684 254.079 141.135C253.695 141.945 253.184 142.689 252.566 143.339C252.049 143.893 251.366 144.265 250.62 144.401C251.17 147.144 250.842 149.99 249.684 152.536C249.338 153.29 248.924 154.009 248.599 154.772C247.269 157.912 247.577 161.454 247.437 164.86C247.425 165.573 247.34 166.284 247.186 166.98C246.84 168.374 246.126 169.855 246.472 171.248C242.893 172.615 238.916 172.53 235.125 171.953C234.383 171.885 233.664 171.667 233.01 171.311C232.472 170.93 232.003 170.461 231.623 169.924C231.476 169.767 231.367 169.578 231.306 169.373C231.157 168.722 231.876 168.231 232.21 167.66C232.544 167.089 232.604 166.184 232.145 165.716C232.374 161.979 233.407 158.331 233.635 154.583C233.727 153.099 233.689 151.609 233.758 150.122C233.826 148.634 233.986 147.187 234.152 145.725C234.528 142.388 235.442 139.117 235.313 135.763C235.274 134.731 235.512 133.707 236.001 132.797C236.414 132.106 236.882 131.449 237.4 130.833C239.153 128.57 241.26 126.3 241.885 123.505C242.207 122.064 242.921 120.745 243.629 119.449C244.048 118.676 244.485 117.885 245.153 117.317C245.517 117.065 245.854 116.779 246.161 116.46C246.629 115.858 246.646 115.033 246.923 114.314C247.065 113.943 247.286 113.6 247.391 113.218C247.478 112.795 247.521 112.365 247.52 111.933C247.611 110.552 248.142 109.216 248.701 107.951C247.386 107.189 246.224 106.188 245.276 104.999C244.958 104.613 244.68 104.195 244.448 103.752C243.86 102.593 243.726 101.271 243.449 100.001C242.79 96.9695 241.274 94.1177 241.062 91.0205C241 90.0757 241.062 89.0994 240.734 88.2061C240.583 87.8279 240.405 87.4604 240.203 87.1069C240.004 86.7595 239.853 86.387 239.752 85.9993C239.569 85.1572 239.821 84.2866 239.752 83.4302C239.684 82.6738 239.361 81.9658 239.201 81.2266C239.038 80.2646 239.01 79.2844 239.119 78.3147C239.19 77.1731 239.438 75.9941 239.341 74.8665C239.023 71.093 240.326 67.3623 242.924 64.6074C243.469 64.0364 244.131 63.4656 244.622 62.8604C245.29 62.0496 245.764 61.0962 246.469 60.3083C246.777 59.9573 247.125 59.6431 247.431 59.2893C247.711 58.918 248.021 58.5703 248.358 58.2502C248.705 57.9285 249.188 57.7991 249.649 57.9048C249.706 58.3306 249.84 58.7424 250.043 59.1208C250.637 59.1665 251.165 59.2493 251.756 59.2949C252.03 59.3081 252.301 59.3501 252.566 59.4204C253.123 59.5889 253.568 59.9915 254.045 60.3369C255.232 61.1733 256.691 61.5615 257.859 62.4236C259.571 63.6938 260.428 65.792 261.461 67.6731C262.829 70.1936 265.058 72.3374 266.028 75.0322L267.367 78.6975C268.244 81.0896 269.12 83.4902 270.308 85.7454C271.96 88.8853 274.198 91.7144 275.525 94.9998C275.658 95.3293 275.904 95.6008 276.219 95.7649C278.027 98.2998 279.633 100.972 281.023 103.758C281.757 105.23 282.451 106.761 282.662 108.391C282.973 110.694 282.345 113.024 281.472 115.176C281.331 115.484 281.234 115.811 281.187 116.146C281.129 116.692 281.338 117.228 281.395 117.774C281.45 118.283 281.374 118.798 281.175 119.269C280.997 119.601 280.848 119.947 280.727 120.303C280.573 120.959 280.847 121.627 280.995 122.284C281.497 124.508 281.406 126.811 281.28 129.089C281.215 130.231 282.137 131.136 282.905 131.972C284.332 133.539 285.445 135.372 286.521 137.202C287.106 138.13 287.6 139.113 287.995 140.136C288.402 141.304 288.565 142.54 288.791 143.753C289.516 147.495 291.891 150.804 292.536 154.558C292.835 156.277 293.597 157.883 294.74 159.202C295.084 159.559 295.402 159.94 295.69 160.344C295.888 160.664 296.045 161.007 296.158 161.366C296.439 162.199 296.571 163.075 296.55 163.955C296.504 164.375 296.528 164.801 296.621 165.214C296.889 166.084 297.849 166.564 298.242 167.383C298.636 168.202 298.365 169.253 298.528 170.183C298.651 170.935 299.054 171.612 299.655 172.079Z" fill-rule="evenodd" fill="#019102"/>
	<path id="Path 4088" d="M213.279 93.49C212.343 93.9695 211.347 94.4604 210.299 94.3921C209.356 94.332 208.498 93.821 207.79 93.1958C207.219 92.6992 206.631 92.0798 205.88 92.1311C205.377 92.1655 204.955 92.5051 204.567 92.8276L202.497 94.5605C202.149 94.7944 201.886 95.135 201.747 95.531C201.706 95.7998 201.722 96.0742 201.795 96.3359C201.889 96.7983 202.046 97.3379 202.491 97.4949C202.937 97.6519 203.422 97.3149 203.893 97.1865C204.479 97.0369 205.101 97.2197 205.512 97.6633C205.68 97.8286 205.781 98.0503 205.797 98.2856C205.797 98.8022 205.226 99.1421 204.701 99.1677C204.176 99.1934 203.673 99.022 203.154 99.0535C203.09 99.0454 203.026 99.0635 202.977 99.103C202.927 99.1428 202.895 99.2012 202.888 99.2646C202.823 99.6311 202.949 100.006 203.222 100.258C203.493 100.506 203.81 100.699 204.153 100.829C204.552 101.026 204.983 101.152 205.426 101.2C206.302 101.257 207.107 100.772 207.938 100.489C209.057 100.113 210.262 100.101 211.443 100.104C212.625 100.107 213.824 100.124 214.958 99.793C216.091 99.4617 217.167 98.728 217.609 97.6348C217.662 97.5327 217.679 97.4163 217.658 97.3037C217.614 97.1833 217.529 97.0825 217.418 97.0181C215.825 95.8394 215.18 94.4062 213.387 93.5583L213.279 93.49Z" fill-rule="evenodd" fill="#FBBEBE"/>
	<path id="Path 4089" d="M235.613 50.7942C235.119 50.874 234.699 51.208 234.231 51.3936C233.596 51.6406 232.885 51.603 232.279 51.2908C232.069 51.1892 231.887 51.0408 231.745 50.8569C231.362 50.3259 231.497 49.5552 231.73 48.9331C232.838 45.99 235.795 44.1687 238.724 44.0518C241.653 43.9346 244.502 45.302 246.812 47.2573C247.498 47.8215 248.114 48.4666 248.647 49.1785C249.852 50.8484 250.396 52.9807 250.557 55.0933C250.652 55.9795 250.593 56.876 250.382 57.7422C250.178 58.5928 249.636 59.3235 248.881 59.7661C248.064 60.1829 247.085 60.0515 246.26 59.6519C245.436 59.2522 244.728 58.6213 244.02 58.019C243.699 57.71 243.319 57.4683 242.903 57.3083C242.48 57.1575 242.007 57.269 241.696 57.5938C241.313 58.0535 241.411 58.8069 241.062 59.3066C240.714 59.8059 239.989 59.8774 239.378 59.8774C238.767 59.8774 238.147 59.8259 237.782 59.3408C237.448 58.9011 237.497 58.259 237.623 57.7051C237.748 57.1514 237.962 56.6033 237.908 56.0352C237.791 54.8933 236.792 54.1912 236.48 53.1406C236.278 52.4526 236.723 52.1616 236.678 51.5393C236.644 50.9912 236.055 50.7229 235.613 50.7942Z" fill-rule="evenodd" fill="#3F3D56"/>
	<g opacity="0.100000">
		<path id="Path 4090" d="M261.621 129.529C259.982 132.711 258.312 136.017 255.835 138.606C255.445 138.98 255.089 139.387 254.77 139.822C254.514 140.245 254.285 140.684 254.085 141.135C253.7 141.946 253.19 142.689 252.572 143.339L250.505 144.373L257.071 110.118L261.621 129.529Z" fill-rule="evenodd" fill="#000000"/>
	</g>
	<g opacity="0.100000">
		<path id="Path 4091" d="M252.078 77.6843C251.514 78.291 250.89 78.8381 250.214 79.3171C248.33 80.7444 246.503 82.0918 244.673 83.5991C243.198 84.7998 241.703 85.9758 240.186 87.1272C239.987 86.7798 239.835 86.4072 239.735 86.0198C239.552 85.1775 239.804 84.3069 239.735 83.4504C239.667 82.6941 239.344 81.9861 239.184 81.2468C239.021 80.2849 238.993 79.3047 239.101 78.3352C239.173 77.1934 239.421 76.0144 239.324 74.8867C239.004 71.104 240.314 67.3647 242.924 64.6074C243.23 64.429 243.622 64.2178 243.96 64.1079C244.969 63.7544 246.084 63.8892 246.98 64.4734C248.532 65.6177 249.916 66.9746 251.091 68.5039C251.736 69.2317 252.315 70.0161 252.82 70.8477C253.974 73.0679 253.681 75.7634 252.078 77.6843Z" fill-rule="evenodd" fill="#000000"/>
	</g>
	<path id="Path 4092" d="M246.706 63.0459C245.808 62.4666 244.692 62.3369 243.686 62.6948C242.691 63.053 241.798 63.6477 241.085 64.4275C240.373 65.1541 239.756 65.9685 239.25 66.8511C238.764 67.7075 238.393 68.6038 237.908 69.4573C237.051 70.9844 235.933 72.3318 234.808 73.6677C234.108 74.4985 233.4 75.3406 232.504 75.9514C231.608 76.5623 230.606 76.9363 229.998 77.7842C229.807 78.0525 229.669 78.355 229.481 78.6262C228.884 79.4998 227.871 79.9678 226.989 80.553C224.46 82.2373 222.887 85.0403 220.523 86.9502C219.504 87.7722 218.354 88.4172 217.352 89.2566C216.419 90.0359 215.639 90.9692 214.708 91.7686C213.778 92.5679 212.685 93.2273 211.472 93.3015C212.282 95.1084 213.25 96.8811 214.64 98.2883C216.03 99.6958 218.114 100.595 220.013 100.044C220.686 99.8499 221.346 99.4387 221.603 98.7881C221.684 98.4534 221.796 98.1274 221.939 97.8145C222.13 97.5635 222.377 97.3608 222.662 97.2236C230.282 92.7754 237.546 87.7432 244.388 82.1714C246.223 80.6758 248.044 79.3369 249.928 77.8896C250.604 77.4106 251.229 76.8635 251.792 76.2568C253.399 74.3384 253.696 71.6426 252.546 69.4202C252.041 68.5886 251.462 67.8042 250.816 67.0767C249.642 65.5471 248.258 64.1904 246.706 63.0459Z" fill-rule="evenodd" fill="#019102"/>
	<g opacity="0.100000">
		<path id="Path 4093" d="M239.949 58.7271C239.378 58.7271 238.718 58.6758 238.353 58.1904C238.022 57.7507 238.067 57.1084 238.193 56.5547C238.319 56.001 238.533 55.4529 238.479 54.8848C238.362 53.7429 237.362 53.0408 237.051 51.9902C236.849 51.3022 237.294 51.0112 237.249 50.3889C237.208 49.8494 236.623 49.5811 236.181 49.6523C235.687 49.7324 235.268 50.0664 234.799 50.252C234.164 50.4988 233.453 50.4614 232.847 50.1492C232.638 50.0476 232.455 49.8992 232.313 49.7153C231.931 49.1843 232.064 48.4136 232.299 47.7913C232.06 48.1731 231.888 48.512 231.728 48.9331C231.494 49.5554 231.359 50.3262 231.742 50.8569C231.884 51.0408 232.067 51.1895 232.276 51.291C232.882 51.6033 233.593 51.6406 234.229 51.3936C234.696 51.2083 235.116 50.8743 235.61 50.7942C236.052 50.7229 236.638 50.9912 236.678 51.5308C236.723 52.1531 236.278 52.4441 236.48 53.1321C236.786 54.1826 237.785 54.8962 237.908 56.0266C237.965 56.5977 237.756 57.1458 237.622 57.6965C237.488 58.2476 237.451 58.8926 237.782 59.3323C238.147 59.8176 238.801 59.8633 239.378 59.8689C239.955 59.8745 240.697 59.8347 241.062 59.2979C241.22 59.0286 241.324 58.7307 241.367 58.4216C240.979 58.6985 240.437 58.7329 239.949 58.7271Z" fill-rule="evenodd" fill="#000000"/>
		<path id="Path 4094" d="M249.452 58.624C248.635 59.041 247.656 58.9097 246.832 58.51C246.006 58.1104 245.298 57.4795 244.59 56.8772C244.27 56.5679 243.89 56.3262 243.475 56.1665C243.051 56.0154 242.578 56.1272 242.267 56.4519C242.073 56.7383 241.951 57.0674 241.91 57.4111C242.21 57.2341 242.573 57.1956 242.903 57.3054C243.319 57.4653 243.699 57.707 244.02 58.0161C244.728 58.6184 245.447 59.2522 246.261 59.6489C247.074 60.0457 248.064 60.1799 248.881 59.7632C249.603 59.3406 250.129 58.6501 250.345 57.842C250.111 58.1672 249.805 58.4346 249.452 58.624Z" fill-rule="evenodd" fill="#000000"/>
	</g>
	<circle id="Ellipse 101" cx="178.410156" cy="172.775635" r="8.563701" fill="#3F3D56"/>
	<g opacity="0.100000">
		<circle id="Ellipse 102" cx="178.410156" cy="172.775635" r="8.563701" fill="#000000"/>
	</g>
	<circle id="Ellipse 103" cx="178.410645" cy="172.775391" r="5.423677" fill="#65617D"/>
	<g opacity="0.100000">
		<circle id="Ellipse 104" cx="178.410645" cy="172.775391" r="5.423677" fill="#000000"/>
	</g>
	<path id="Path 4095" d="M171.845 159.359L177.462 172.062C177.633 172.451 178.014 172.705 178.439 172.714C178.863 172.722 179.254 172.483 179.441 172.102L186.118 158.503L171.845 159.359Z" fill-rule="evenodd" fill="#3F3D56"/>
	<g opacity="0.100000">
		<path id="Path 4096" d="M171.845 159.359L177.462 172.062C177.633 172.451 178.014 172.705 178.439 172.714C178.863 172.722 179.254 172.483 179.441 172.102L186.118 158.503L171.845 159.359Z" fill-rule="evenodd" fill="#000000"/>
	</g>
	<circle id="Ellipse 105" cx="125.029297" cy="172.775635" r="8.563701" fill="#3F3D56"/>
	<g opacity="0.100000">
		<circle id="Ellipse 106" cx="125.029297" cy="172.775635" r="8.563701" fill="#000000"/>
	</g>
	<circle id="Ellipse 107" cx="125.030273" cy="172.775391" r="5.423677" fill="#65617D"/>
	<g opacity="0.100000">
		<circle id="Ellipse 108" cx="125.030273" cy="172.775391" r="5.423677" fill="#000000"/>
	</g>
	<path id="Path 4097" d="M118.465 159.359L124.083 172.062C124.253 172.451 124.635 172.705 125.059 172.714C125.483 172.722 125.875 172.483 126.061 172.102L132.737 158.503L118.465 159.359Z" fill-rule="evenodd" fill="#3F3D56"/>
	<g opacity="0.100000">
		<path id="Path 4098" d="M118.465 159.359L124.083 172.062C124.253 172.451 124.635 172.705 125.059 172.714C125.483 172.722 125.875 172.483 126.061 172.102L132.737 158.503L118.465 159.359Z" fill-rule="evenodd" fill="#000000"/>
	</g>
	<path id="Path 4099" d="M206.202 98.2C206.155 97.7607 205.887 97.3755 205.491 97.1782C205.161 97.0371 204.786 97.0364 204.455 97.1763C204.124 97.3162 203.863 97.5847 203.733 97.9202L198.82 110.118L197.393 164.926L199.677 164.926L200.533 110.235L206.083 99.0278C206.208 98.7715 206.25 98.4817 206.202 98.2Z" fill-rule="evenodd" fill="#3F3D56"/>
	<path id="Path 4100" d="M105.19 160.644L112.897 155.791L196.108 155.077L198.25 160.644L105.19 160.644Z" fill-rule="evenodd" fill="#019102"/>
	<path id="Path 4101" d="M105.19 165.782L105.19 160.644L199.756 159.73L199.665 163.213L106.903 163.213L106.903 165.782L105.19 165.782Z" fill-rule="evenodd" fill="#3F3D56"/>
	<circle id="Ellipse 109" cx="117.179688" cy="175.772705" r="8.563701" fill="#3F3D56"/>
	<circle id="Ellipse 110" cx="117.179688" cy="175.772705" r="5.423677" fill="#65617D"/>
	<path id="Path 4102" d="M110.614 162.356L116.232 175.059C116.402 175.448 116.784 175.702 117.208 175.711C117.633 175.719 118.023 175.481 118.21 175.099L124.887 161.5L110.614 162.356Z" fill-rule="evenodd" fill="#3F3D56"/>
	<circle id="Ellipse 111" cx="183.690918" cy="175.772705" r="8.563701" fill="#3F3D56"/>
	<circle id="Ellipse 112" cx="183.691406" cy="175.772705" r="5.423677" fill="#65617D"/>
	<path id="Path 4103" d="M177.126 162.356L182.744 175.059C182.915 175.448 183.296 175.702 183.72 175.711C184.145 175.719 184.536 175.481 184.722 175.099L191.399 161.5L177.126 162.356Z" fill-rule="evenodd" fill="#3F3D56"/>
	<rect id="Rectangle 2075" x="115.895508" y="138.235352" width="35.682083" height="19.696510" fill="#65617D"/>
	<g opacity="0.100000">
		<rect id="Rectangle 2076" x="128.455078" y="141.660645" width="10.847354" height="2.283653" fill="#000000"/>
	</g>
	<g opacity="0.100000">
		<rect id="Rectangle 2077" x="129.811523" y="141.946289" width="8.135515" height="1.712740" fill="#000000"/>
	</g>
	<rect id="Rectangle 2078" x="152.148438" y="138.235352" width="35.682083" height="19.696510" fill="#65617D"/>
	<g opacity="0.100000">
		<rect id="Rectangle 2079" x="164.708496" y="141.660645" width="10.847354" height="2.283653" fill="#000000"/>
	</g>
	<g opacity="0.100000">
		<rect id="Rectangle 2080" x="166.064453" y="141.946289" width="8.135515" height="1.712740" fill="#000000"/>
	</g>
	<rect id="Rectangle 2081" x="115.895508" y="117.967773" width="35.682083" height="19.696510" fill="#65617D"/>
	<g opacity="0.100000">
		<rect id="Rectangle 2082" x="128.455078" y="121.393311" width="10.847354" height="2.283653" fill="#000000"/>
	</g>
	<g opacity="0.100000">
		<rect id="Rectangle 2083" x="129.811523" y="121.678711" width="8.135515" height="1.712740" fill="#000000"/>
	</g>
	<rect id="Rectangle 2084" x="152.148438" y="117.967773" width="35.682083" height="19.696510" fill="#65617D"/>
	<g opacity="0.100000">
		<rect id="Rectangle 2085" x="164.708496" y="121.393311" width="10.847354" height="2.283653" fill="#000000"/>
	</g>
	<g opacity="0.100000">
		<rect id="Rectangle 2086" x="166.064453" y="121.678711" width="8.135515" height="1.712740" fill="#000000"/>
	</g>
	<rect id="Rectangle 2087" x="115.895508" y="97.415039" width="35.682083" height="19.696510" fill="#65617D"/>
	<g opacity="0.100000">
		<rect id="Rectangle 2088" x="128.455078" y="100.840332" width="10.847354" height="2.283653" fill="#000000"/>
	</g>
	<g opacity="0.100000">
		<rect id="Rectangle 2089" x="129.811523" y="101.125977" width="8.135515" height="1.712740" fill="#000000"/>
	</g>
	<rect id="Rectangle 2090" x="152.148438" y="97.415039" width="35.682083" height="19.696510" fill="#65617D"/>
	<g opacity="0.100000">
		<rect id="Rectangle 2091" x="164.708496" y="100.840332" width="10.847354" height="2.283653" fill="#000000"/>
	</g>
	<g opacity="0.100000">
		<rect id="Rectangle 2092" x="166.064453" y="101.125977" width="8.135515" height="1.712740" fill="#000000"/>
	</g>
	<rect id="Rectangle 2093" x="152.148438" y="76.862061" width="35.682083" height="19.696510" fill="#65617D"/>
	<g opacity="0.100000">
		<rect id="Rectangle 2094" x="164.708496" y="80.287598" width="10.847354" height="2.283653" fill="#000000"/>
	</g>
	<g opacity="0.100000">
		<rect id="Rectangle 2095" x="166.064453" y="80.572998" width="8.135515" height="1.712740" fill="#000000"/>
	</g>
	<defs>
		<linearGradient id="paint_linear_1_384_0" x1="250.582489" y1="181.093689" x2="250.582489" y2="43.178192" gradientUnits="userSpaceOnUse">
			<stop stop-color="#808080" stop-opacity="0.250980"/>
			<stop offset="0.540000" stop-color="#808080" stop-opacity="0.121569"/>
			<stop offset="1.000000" stop-color="#808080" stop-opacity="0.101961"/>
		</linearGradient>
	</defs>
</svg>
